<svg id="Capa_1" data-name="Capa 1" xmlns="http://www.w3.org/2000/svg" xmlns:xlink="http://www.w3.org/1999/xlink" viewBox="0 0 398.32 162.93"><defs><style>.cls-1,.cls-7{fill:#000b27;}.cls-1,.cls-12,.cls-2,.cls-3,.cls-4,.cls-5,.cls-6,.cls-7,.cls-8{fill-rule:evenodd;}.cls-2{fill:url(#GradientFill_1);}.cls-3{fill:#f2ca30;}.cls-4{fill:#f2cf9f;}.cls-5{fill:#cc2128;}.cls-10,.cls-6{fill:#fff;}.cls-7{opacity:0.2;}.cls-8{fill:#905744;}.cls-9{font-size:53.79px;font-family:NautilusPompilius, Nautilus Pompilius;}.cls-12,.cls-9{fill:#fff12d;}.cls-10{font-size:22.3px;font-family:CaviarDreams-Bold, Caviar Dreams;font-weight:700;}.cls-11{letter-spacing:-0.03em;}</style><linearGradient id="GradientFill_1" x1="161.61" y1="93.41" x2="320.35" y2="97.57" gradientUnits="userSpaceOnUse"><stop offset="0" stop-color="#861115"/><stop offset="1" stop-color="#cc2128"/></linearGradient></defs><title>tato_logo</title><path class="cls-1" d="M142.29,132.75l1.56-76.44a2.82,2.82,0,0,1,2.69-2.77l94.53-4.67v95.41l-96.2-8.65a2.83,2.83,0,0,1-2.58-2.88ZM244.7,48.69l36-1.77V147.84l-36-3.23V48.69Zm60-3L360.77,43V155l-56.07-5V45.73Zm58.17-2.87,13.34-.66c6.45-.32,13.48,1.45,18.08,6.22a17.23,17.23,0,0,1,4.7,12.8l-2,70.5c-.2,7-1.52,14.9-7.28,19.6-6.44,5.26-16.61,4.83-24.4,4.13l-2.45-.22Z" transform="translate(-0.68 -0.74)"/><path class="cls-2" d="M145.12,132.81l220.45,19.82c18.66,1.67,28-1.58,28.59-21l2-70.5c.33-11.45-9.68-16.61-19.81-16.11L146.68,56.37Z" transform="translate(-0.68 -0.74)"/><path class="cls-1" d="M150.76,30.89a1.13,1.13,0,0,1-.94-1.77L164.2,7.88a1.14,1.14,0,0,1,1.58-.31,1.15,1.15,0,0,1,.31,1.59L151.71,30.39A1.13,1.13,0,0,1,150.76,30.89Z" transform="translate(-0.68 -0.74)"/><path class="cls-1" d="M160.72,38.13a1.15,1.15,0,0,1-.82-1.94l10.35-10.62a1.14,1.14,0,1,1,1.63,1.59L161.54,37.78A1.15,1.15,0,0,1,160.72,38.13Z" transform="translate(-0.68 -0.74)"/><path class="cls-1" d="M174.36,24.24a1.11,1.11,0,0,1-.77-.3,1.13,1.13,0,0,1-.07-1.61l3.16-3.44a1.14,1.14,0,1,1,1.68,1.54l-3.17,3.44A1.14,1.14,0,0,1,174.36,24.24Z" transform="translate(-0.68 -0.74)"/><path class="cls-1" d="M178,70.14a1.14,1.14,0,0,1-.36-2.21l23.63-8.06A1.14,1.14,0,1,1,202,62l-23.64,8A1.15,1.15,0,0,1,178,70.14Z" transform="translate(-0.68 -0.74)"/><path class="cls-1" d="M173.14,53.52a1.14,1.14,0,0,1-.59-2.11l11.66-7a1.14,1.14,0,0,1,1.18,2l-11.66,7A1.16,1.16,0,0,1,173.14,53.52Z" transform="translate(-0.68 -0.74)"/><path class="cls-1" d="M196.44,87.54h0L179,87.28A1.14,1.14,0,0,1,179,85l17.48.26a1.14,1.14,0,0,1,0,2.28Z" transform="translate(-0.68 -0.74)"/><path class="cls-1" d="M203.69,116.29a1.06,1.06,0,0,1-.38-.07l-27.25-9.77a1.14,1.14,0,1,1,.77-2.14l27.25,9.77a1.14,1.14,0,0,1-.39,2.21Z" transform="translate(-0.68 -0.74)"/><path class="cls-1" d="M177.46,126.4a1.1,1.1,0,0,1-.67-.22l-6.07-4.44a1.14,1.14,0,0,1,1.34-1.84l6.07,4.44a1.14,1.14,0,0,1,.25,1.59A1.12,1.12,0,0,1,177.46,126.4Z" transform="translate(-0.68 -0.74)"/><path class="cls-1" d="M55.76,30.79a1.14,1.14,0,0,1-.94-.5L40.44,9.05a1.14,1.14,0,0,1,.3-1.58,1.15,1.15,0,0,1,1.59.3L56.7,29a1.13,1.13,0,0,1-.3,1.58A1.18,1.18,0,0,1,55.76,30.79Z" transform="translate(-0.68 -0.74)"/><path class="cls-1" d="M45.81,38a1.17,1.17,0,0,1-.82-.34L34.65,27.06a1.14,1.14,0,1,1,1.63-1.59L46.62,36.08A1.14,1.14,0,0,1,45.81,38Z" transform="translate(-0.68 -0.74)"/><path class="cls-1" d="M32.17,24.13a1.15,1.15,0,0,1-.84-.36l-3.16-3.44a1.14,1.14,0,0,1,1.68-1.55L33,22.22a1.15,1.15,0,0,1-.07,1.61A1.13,1.13,0,0,1,32.17,24.13Z" transform="translate(-0.68 -0.74)"/><path class="cls-1" d="M28.52,70a1.24,1.24,0,0,1-.37-.06L4.52,61.92a1.14,1.14,0,0,1,.73-2.15l23.64,8A1.14,1.14,0,0,1,28.52,70Z" transform="translate(-0.68 -0.74)"/><path class="cls-1" d="M33.39,53.42a1.15,1.15,0,0,1-.59-.17l-11.66-7a1.14,1.14,0,0,1-.39-1.56,1.15,1.15,0,0,1,1.57-.39L34,51.3a1.14,1.14,0,0,1-.59,2.12Z" transform="translate(-0.68 -0.74)"/><path class="cls-1" d="M10.08,87.43a1.14,1.14,0,0,1,0-2.28l17.47-.25a1.14,1.14,0,1,1,0,2.27l-17.47.26Z" transform="translate(-0.68 -0.74)"/><path class="cls-1" d="M4.8,87.4h0l-3,0a1.14,1.14,0,1,1,0-2.28l3,0a1.14,1.14,0,0,1,0,2.28Z" transform="translate(-0.68 -0.74)"/><path class="cls-1" d="M2.83,116.18A1.14,1.14,0,0,1,2.45,114L29.7,104.2a1.14,1.14,0,0,1,.77,2.15L3.22,116.12A1.32,1.32,0,0,1,2.83,116.18Z" transform="translate(-0.68 -0.74)"/><path class="cls-1" d="M29.07,126.3a1.15,1.15,0,0,1-.92-.47,1.14,1.14,0,0,1,.25-1.59l6.07-4.44a1.14,1.14,0,0,1,1.34,1.84l-6.07,4.44A1.12,1.12,0,0,1,29.07,126.3Z" transform="translate(-0.68 -0.74)"/><path class="cls-1" d="M201.73,87.5a1.14,1.14,0,0,1,0-2.28l3,0a1.14,1.14,0,1,1,0,2.28l-3,0Z" transform="translate(-0.68 -0.74)"/><path class="cls-3" d="M103.32,27.6a66.29,66.29,0,0,0,0,132.58c.66,0,1.31,0,2,0V27.63C104.63,27.61,104,27.6,103.32,27.6Z" transform="translate(-0.68 -0.74)"/><path class="cls-3" d="M169.61,93.89a66.29,66.29,0,0,0-64.33-66.26V160.15A66.29,66.29,0,0,0,169.61,93.89Z" transform="translate(-0.68 -0.74)"/><path class="cls-4" d="M83,46.94S69.91,54,67.21,68.22s-3.88,33.52,13.51,45.27,25.63,10.1,32.25,7.84,25.92-6.22,30.62-26.65,1.44-21,1.44-21-4.9-22.18-22.53-29.43C102,35.86,83,46.94,83,46.94Z" transform="translate(-0.68 -0.74)"/><path class="cls-5" d="M98.44,86s-8,.2-6.31,3.59,8,8.37,14.26,7.46,14.62-3.54,13.27-7.92S98.44,86,98.44,86Z" transform="translate(-0.68 -0.74)"/><path class="cls-4" d="M81.85,93.63c0,6.43-5.64,11.64-12.58,11.64s-12.59-5.21-12.59-11.64S62.32,82,69.27,82,81.85,87.2,81.85,93.63Z" transform="translate(-0.68 -0.74)"/><path class="cls-4" d="M155.87,94.9c0,6.43-5.64,11.64-12.58,11.64S130.7,101.33,130.7,94.9s5.64-11.64,12.59-11.64S155.87,88.47,155.87,94.9Z" transform="translate(-0.68 -0.74)"/><path class="cls-4" d="M83.87,132s-5.9-9.8-10.36-9-3,4.49-3,4.49-7-2.44-9-1.57-11.56,5-11,8.63a42.68,42.68,0,0,0,3.06,8.75s1.28,8.44,6,9.3c0,0,1,7.62,6.27,8.5s15.65-4.18,14.86-10.41a15.59,15.59,0,0,0,1.71-10.17S84.66,134.61,83.87,132Z" transform="translate(-0.68 -0.74)"/><path class="cls-4" d="M140.75,125.53s-5.09-4.27-7.77-1.83-7.12,10.48-6,14.58l1.35,2.62s-.45,7.83,1.88,9.5c0,0,.7,9.27,16.15,9.86,0,0,3.72-3.45,4.24-6.34,0,0,6-2.62,6-11.34,0,0,4.56-5.57,2.89-10.83,0,0-6.53-6.48-18.12-6.22Z" transform="translate(-0.68 -0.74)"/><path class="cls-5" d="M79.88,113.7a7.48,7.48,0,0,0-1.36,4c0,2.16-3.42,3.6-3.42,3.6s0,2.81.68,3,13.29,7.07,13.29,7.07-1.63,13-.91,15.63,7.14,3.32,11.11-2.4,6.49-10.35,6.49-10.35,5,13.93,15.33,14.73A13.89,13.89,0,0,0,120,132.31s7.48-2.42,11.41-6.78l3.93-4.36-1.51-2.57-2.54-4.36s-13.13,6.46-17.86,6.64S93.24,121.67,79.88,113.7Z" transform="translate(-0.68 -0.74)"/><path class="cls-6" d="M86.8,77.7,87.11,82s30.05,4,36,0c0,0,1.88-3.28,1.71-4.28S89.46,78.88,86.8,77.7Z" transform="translate(-0.68 -0.74)"/><path class="cls-6" d="M79.31,48.66S68,18.49,72,13.77,81.14,7,88.16,11.6l.91,1.08S93.43-1,108.68,2.72c0,0,11.7,3.72,12.25,9.66,0,0,3.46-4.59,8-3.55s9.38,5.6,9.38,5.6L133,49.51S106.74,29.9,79.31,48.66Z" transform="translate(-0.68 -0.74)"/><path class="cls-6" d="M79.37,161.16c6.54,0,13,.66,19.58,1,3.27.17,6.54.26,9.8.13a55.46,55.46,0,0,0,8.8-1,3,3,0,0,1,3.4,1.43,81.5,81.5,0,0,0,12.86-5.15s-5.55-3.86-4-6.05-.88-4.49-.88-4.49l-.62-6.12s-3.84-7.06-.37-11.22l-9.87,2.49s3.89,2.65,4.21,5.17.43,11.86-1.11,13.06-14.31-10.94-14.77-14.6c0,0-9.52,12.67-17.32,13.2,0,0-4.72-2.1-2.08-7.9a69.12,69.12,0,0,0,3.64-9.5L83,129.89s3.33,6.94-.26,9.77c0,0,1,4.94-.14,7.57a34.41,34.41,0,0,0-1.85,6.89s-6.81,5.18-4.31,6.33c.32.15,1,.48,2,.9A2.62,2.62,0,0,1,79.37,161.16Z" transform="translate(-0.68 -0.74)"/><path class="cls-1" d="M157.83,154.27l-5-3.08a11.53,11.53,0,0,1-1.63.87,3,3,0,0,1,0,1.84l4.88,3a1.58,1.58,0,1,0,1.67-2.68Z" transform="translate(-0.68 -0.74)"/><path class="cls-7" d="M133.2,158.4c-.14-.66-.28-1.27-.32-1.42a6.84,6.84,0,0,1,.86.53.06.06,0,0,1,0,0l0,0a6.46,6.46,0,0,1,1.73,1.84l-2,.18c.06-.47.14-1.11.24-2a4.14,4.14,0,0,1-.53.85c.08.4.16.81.23,1.14l-1.41.13a14.19,14.19,0,0,0,1.18-1.27Zm-4.38-16.66h0a12.56,12.56,0,0,1,0,1.5c-.07.66-.16,1.28-.29,1.94.07-.5.19-1.79.32-3.44Zm-19.94,19.61h0c.82,0,1.76.1,2.77.14l-2.62.24-.15-.38Zm34.23-.23h0a26.6,26.6,0,0,1-5.74-1c1.72.17,3.45.35,5.18.51.9.08,1.8.15,2.7.2A4.71,4.71,0,0,1,143.11,161.12Z" transform="translate(-0.68 -0.74)"/><path class="cls-1" d="M141.34,160.64a15,15,0,0,1-3.26-1.39,3,3,0,0,1-1.14-1.11,220.73,220.73,0,0,1-32.16,2.38,205.06,205.06,0,0,1-30.1-2.18A2.87,2.87,0,0,1,74,159a15.14,15.14,0,0,1-4,1.8,206.37,206.37,0,0,0,34.86,2.9A223.54,223.54,0,0,0,141.34,160.64Z" transform="translate(-0.68 -0.74)"/><path class="cls-1" d="M105.24,123.44a42,42,0,0,1-17.52-3.78l-.8-.38-.06,0a42.66,42.66,0,0,1-16.25-13.63l-.18-.25-.06-.24a42.08,42.08,0,0,1-7.51-24.07c0-.94,0-1.9.1-2.85l-.12-.41,0-.31a42.39,42.39,0,0,1,59-35.42l0,0,.72.31a42.38,42.38,0,0,1,24.85,35.15l0,.31-.11.39c.06.93.09,1.85.09,2.74A42.14,42.14,0,0,1,140,105l-.12.44-.18.25a42.37,42.37,0,0,1-34.49,17.75Zm-31.6-19.6h0A39.11,39.11,0,0,0,88.38,116.1l0,0,.75.35a38.57,38.57,0,0,0,16.07,3.46,39,39,0,0,0,31.45-16l.12-.41.17-.25A38.64,38.64,0,0,0,144,81c0-.91,0-1.85-.1-2.79l0-.3.11-.37a38.87,38.87,0,0,0-22.78-31.93l-.65-.29,0,0a38.6,38.6,0,0,0-15.38-3.16A39.07,39.07,0,0,0,66.39,77.48l.11.39,0,.31c-.07,1-.11,1.93-.11,2.89a38.66,38.66,0,0,0,7,22.31l.18.25Z" transform="translate(-0.68 -0.74)"/><path class="cls-1" d="M144.39,107.33h0l-.77,0a12.48,12.48,0,0,1-4.84-1.29l-1.95-1,1.37-1.7a29.08,29.08,0,0,0,6.48-16.65c0-.8.06-1.62,0-2.44l0-2.17,2.14.42a12.54,12.54,0,0,1-2.43,24.83Zm-2-3.72h0a9.79,9.79,0,0,0,1.44.2l.56,0a9,9,0,0,0,3.8-17.22c0,.09,0,.19,0,.29A32.58,32.58,0,0,1,142.39,103.61Z" transform="translate(-0.68 -0.74)"/><path class="cls-1" d="M151.33,91.94l-.12,0-.33.12-.49.21c-.18.07-.38.18-.6.28s-.45.23-.68.38l-.36.22-.35.26a3.07,3.07,0,0,0-.35.28c-.12.1-.24.19-.35.3l-.33.33-.16.16-.16.18c-.2.25-.41.47-.58.73l-.27.37-.13.18-.11.19c-.15.26-.31.49-.44.73s-.24.47-.35.67-.1.21-.15.3l-.12.29c-.08.17-.15.33-.2.45s-.18.4-.18.4l-2.37-1.15.25-.43c.09-.13.19-.3.3-.49l.19-.29c.07-.11.15-.21.23-.32s.34-.46.53-.71.42-.49.65-.75l.17-.19.2-.19.39-.36a8.33,8.33,0,0,1,.85-.7l.22-.17.23-.15.46-.29c.15-.09.32-.17.48-.25a5.08,5.08,0,0,1,.47-.23l.47-.19c.15-.06.31-.1.45-.15a6.43,6.43,0,0,1,.86-.19,4.91,4.91,0,0,1,.74,0,3.1,3.1,0,0,1,.57,0,1.67,1.67,0,0,1,.35.08Z" transform="translate(-0.68 -0.74)"/><path class="cls-1" d="M148.6,99.33s0-.07-.12-.18l-.15-.2c-.06-.08-.12-.16-.2-.25l-.26-.27-.3-.27c-.11-.08-.22-.18-.34-.25a2,2,0,0,0-.37-.21l-.18-.1-.19-.07a2.92,2.92,0,0,0-.36-.11,2.21,2.21,0,0,0-.34-.06l-.15,0h-.15a1.91,1.91,0,0,0-.24,0l-.19,0h-.16l.5-2.58.26.12.29.14.35.22.19.13c.07,0,.13.1.2.15s.27.22.4.35a4.89,4.89,0,0,1,.37.41l.17.22.15.23c.1.15.19.31.27.46s.14.32.2.47.11.29.15.44.07.27.1.39,0,.24.06.33,0,.19,0,.26S148.6,99.33,148.6,99.33Z" transform="translate(-0.68 -0.74)"/><path class="cls-1" d="M66.68,107.33A12.54,12.54,0,0,1,64.25,82.5l2.14-.42,0,2.17c0,.82,0,1.64,0,2.44a29.08,29.08,0,0,0,6.48,16.65l1.37,1.7-1.95,1a12.48,12.48,0,0,1-4.84,1.29l-.77,0Zm-3.8-20.72h0a9,9,0,0,0,3.8,17.22l.56,0a9.79,9.79,0,0,0,1.44-.2A32.58,32.58,0,0,1,62.89,86.9C62.89,86.8,62.88,86.7,62.88,86.61Z" transform="translate(-0.68 -0.74)"/><path class="cls-1" d="M59.73,91.94l.13,0a1.67,1.67,0,0,1,.35-.08,3.1,3.1,0,0,1,.57,0,4.91,4.91,0,0,1,.74,0,6.43,6.43,0,0,1,.86.19c.14,0,.3.09.45.15l.47.19a4.09,4.09,0,0,1,.47.23l.48.25.46.29.23.15.22.17a8.33,8.33,0,0,1,.85.7l.39.36.2.19.17.19c.23.26.45.5.65.75s.37.48.53.71.16.21.23.32l.19.29.29.49.26.43L66.55,99s-.06-.15-.18-.4l-.2-.45-.12-.29q-.08-.14-.15-.3c-.11-.2-.23-.43-.35-.67s-.29-.47-.44-.73L65,96l-.13-.18-.27-.37c-.17-.26-.38-.48-.58-.73l-.16-.18-.16-.16L63.37,94c-.11-.11-.23-.2-.35-.3a2.39,2.39,0,0,0-.35-.28l-.35-.26L62,93c-.23-.15-.47-.25-.68-.38s-.42-.21-.6-.28l-.49-.21L59.86,92Z" transform="translate(-0.68 -0.74)"/><path class="cls-1" d="M62.47,99.33s0-.08,0-.22,0-.15,0-.26,0-.21.06-.33.06-.25.1-.39a3.81,3.81,0,0,1,.15-.44c.06-.15.12-.31.2-.47a3.67,3.67,0,0,1,.27-.46l.15-.23.17-.22A4.89,4.89,0,0,1,64,95.9c.13-.13.27-.24.4-.35s.13-.11.2-.15l.19-.13.35-.22.29-.14.26-.12.5,2.58H66l-.19,0a1.91,1.91,0,0,0-.24,0h-.15l-.15,0a2.21,2.21,0,0,0-.34.06,2.92,2.92,0,0,0-.36.11l-.19.07-.18.1a2,2,0,0,0-.37.21c-.12.07-.23.17-.34.25l-.3.27a3.25,3.25,0,0,0-.26.27l-.2.25a2.08,2.08,0,0,0-.15.2C62.51,99.26,62.47,99.33,62.47,99.33Z" transform="translate(-0.68 -0.74)"/><path class="cls-1" d="M116.74,110.57l.06.39c0,.07,0,.13,0,.22s0,.18,0,.28,0,.21,0,.32,0,.24,0,.37a10.18,10.18,0,0,1-.16,1.85,10.67,10.67,0,0,1-.71,2.35,11,11,0,0,1-1.5,2.54,10.37,10.37,0,0,1-1.1,1.21,10,10,0,0,1-1.31,1.1,11.76,11.76,0,0,1-1.53.93,11,11,0,0,1-1.7.7,11.26,11.26,0,0,1-1.82.45,14.75,14.75,0,0,1-1.88.16h-.67l-.25,0-.5,0-.47-.06a11.55,11.55,0,0,1-1.83-.42,11.11,11.11,0,0,1-1.71-.69,11.26,11.26,0,0,1-1.55-.91,12,12,0,0,1-1.34-1.09A14,14,0,0,1,95.73,119a12,12,0,0,1-1.55-2.55,10.63,10.63,0,0,1-.74-2.37,9.33,9.33,0,0,1-.19-1.89v-.36a3.25,3.25,0,0,1,0-.33c0-.2,0-.37,0-.51s.06-.41.06-.41a.68.68,0,0,1,1.33,0v0s0,.12.08.36,0,.27.09.44.09.36.15.57a11.59,11.59,0,0,0,.54,1.49,11.87,11.87,0,0,0,1,1.76A11.3,11.3,0,0,0,98,117a9.36,9.36,0,0,0,.94.82c.16.13.34.25.52.38l.27.17a2.61,2.61,0,0,0,.28.17,10,10,0,0,0,1.17.61l.31.12.32.12.32.11.32.1a10.29,10.29,0,0,0,1.34.28l.34,0,.32,0,.16,0h.56a10.48,10.48,0,0,0,2.73-.34c.11,0,.21-.06.32-.09l.33-.11.32-.11.31-.12a12.14,12.14,0,0,0,1.2-.59,2.61,2.61,0,0,0,.28-.17l.28-.17.53-.38a11,11,0,0,0,1-.81,11.29,11.29,0,0,0,1.52-1.79,11.9,11.9,0,0,0,1-1.77,11.3,11.3,0,0,0,.56-1.52c0-.11.07-.21.1-.31a2.13,2.13,0,0,1,.07-.27l.06-.23c0-.08,0-.15,0-.21,0-.26.08-.4.08-.4a.45.45,0,0,1,.53-.34A.46.46,0,0,1,116.74,110.57Z" transform="translate(-0.68 -0.74)"/><path class="cls-1" d="M124.08,61.16c0,3.18-1.34,5.76-3,5.76s-3-2.58-3-5.76,1.31-4.74,3-4.74S124.08,58,124.08,61.16Z" transform="translate(-0.68 -0.74)"/><path class="cls-1" d="M92.05,61.16c0,3.18-1.33,5.76-3,5.76s-3-2.58-3-5.76,1.31-4.74,3-4.74S92.05,58,92.05,61.16Z" transform="translate(-0.68 -0.74)"/><path class="cls-8" d="M81.41,56.63a2.27,2.27,0,0,1-.62-.09A2.12,2.12,0,0,1,79.4,53.9a9.48,9.48,0,0,1,6.88-6.72A12,12,0,0,1,91,46.91a2.11,2.11,0,0,1-.71,4.15c-.56-.09-5.39-.72-6.88,4.09A2.11,2.11,0,0,1,81.41,56.63Z" transform="translate(-0.68 -0.74)"/><path class="cls-1" d="M81.42,57.6h0a3.07,3.07,0,0,1-.9-.14A3,3,0,0,1,78.7,56a3.08,3.08,0,0,1-.22-2.34A10.39,10.39,0,0,1,86,46.25a12.81,12.81,0,0,1,3.3-.42,10,10,0,0,1,1.83.14,3.06,3.06,0,0,1-.52,6.08,3.12,3.12,0,0,1-.52,0,6.34,6.34,0,0,0-.88-.06,4.73,4.73,0,0,0-4.91,3.48,3,3,0,0,1-2.92,2.17Zm7.92-9.84h0a11.27,11.27,0,0,0-2.81.35,8.54,8.54,0,0,0-6.2,6.08,1.1,1.1,0,0,0,.08.87,1.13,1.13,0,0,0,.67.56,1.26,1.26,0,0,0,.33.05,1.14,1.14,0,0,0,1.09-.81A6.71,6.71,0,0,1,89.25,50a7.24,7.24,0,0,1,1.2.09l.2,0a1.14,1.14,0,0,0,.19-2.27A10.05,10.05,0,0,0,89.34,47.76Z" transform="translate(-0.68 -0.74)"/><path class="cls-8" d="M127.7,56.05a2.11,2.11,0,0,1-2-1.48c-1.53-5-6.64-4.13-6.86-4.1a2.1,2.1,0,0,1-.72-4.14,12,12,0,0,1,4.72.26,9.49,9.49,0,0,1,6.88,6.73A2.1,2.1,0,0,1,128.32,56,1.87,1.87,0,0,1,127.7,56.05Z" transform="translate(-0.68 -0.74)"/><path class="cls-1" d="M127.7,57a3.06,3.06,0,0,1-2.93-2.16,4.74,4.74,0,0,0-4.91-3.49,5.79,5.79,0,0,0-.86.06,3.27,3.27,0,0,1-.53,0,3.07,3.07,0,0,1-.53-6.09,11.92,11.92,0,0,1,1.84-.13,12.92,12.92,0,0,1,3.3.41A10.42,10.42,0,0,1,130.63,53a3.05,3.05,0,0,1-2,3.83,3.14,3.14,0,0,1-.91.14Zm-7.84-7.57h0a6.71,6.71,0,0,1,6.75,4.84,1.14,1.14,0,0,0,1.09.8,1,1,0,0,0,.34,0,1.14,1.14,0,0,0,.75-1.42,8.54,8.54,0,0,0-6.2-6.08,10.93,10.93,0,0,0-2.81-.36,9.49,9.49,0,0,0-1.51.11,1.1,1.1,0,0,0-.73.47,1.08,1.08,0,0,0-.19.85,1.12,1.12,0,0,0,1.12.94.71.71,0,0,0,.2,0A8.59,8.59,0,0,1,119.86,49.44Z" transform="translate(-0.68 -0.74)"/><path class="cls-1" d="M96.24,99.61s.24.29.68.72a11.74,11.74,0,0,0,1.93,1.54,9.47,9.47,0,0,0,1.38.75,11.3,11.3,0,0,0,3.42.88c.31,0,.62,0,.94.06h1a4.1,4.1,0,0,0,.51,0l.48,0c.32,0,.65,0,1-.09a13.18,13.18,0,0,0,1.83-.3,10.74,10.74,0,0,0,1.63-.53,7.38,7.38,0,0,0,1.34-.73,6.55,6.55,0,0,0,1.69-1.69,5,5,0,0,0,.48-.85,1.87,1.87,0,0,1,0,.27,4.79,4.79,0,0,1,0,.76,5.76,5.76,0,0,1-.34,1.16,6,6,0,0,1-.83,1.37,7.09,7.09,0,0,1-1.41,1.3,8.78,8.78,0,0,1-1.87,1,11.33,11.33,0,0,1-2.16.6c-.37.07-.74.11-1.12.16s-.79.06-1.13.06h-1.14c-.39,0-.77-.07-1.16-.13a10.33,10.33,0,0,1-2.18-.62,9.66,9.66,0,0,1-1.85-1,8.21,8.21,0,0,1-1.39-1.27,8.86,8.86,0,0,1-.9-1.27,6.55,6.55,0,0,1-.5-1.07A4.15,4.15,0,0,1,96.24,99.61Z" transform="translate(-0.68 -0.74)"/><path class="cls-8" d="M112.24,66.15c-5.88-.86-6.72,2-6.72,2.06s-.84-2.92-6.72-2.06C91,67.28,91.46,74.48,75.1,73.1c0,0,27.05,8.88,30.42.57,3.36,8.31,30.41-.57,30.41-.57C119.58,74.48,120,67.28,112.24,66.15Z" transform="translate(-0.68 -0.74)"/><path class="cls-1" d="M114.31,78.54c-4.16,0-7.1-.85-8.79-2.54-1.69,1.69-4.63,2.54-8.79,2.54-9.18,0-21.52-4-22-4.19a1.32,1.32,0,0,1,.53-2.56c1.34.11,2.61.17,3.79.17h0c7,0,9.84-2,12.56-3.91a15.29,15.29,0,0,1,7-3.21,16.07,16.07,0,0,1,2.22-.17,7.26,7.26,0,0,1,4.68,1.4,7.1,7.1,0,0,1,4.7-1.4,16.19,16.19,0,0,1,2.22.17,15.34,15.34,0,0,1,7,3.21C122.19,70,125,72,132,72c1.17,0,2.45-.06,3.79-.17a1.31,1.31,0,0,1,.52,2.56c-.52.17-12.86,4.19-22,4.19Zm-8.79-6.18h0a1.31,1.31,0,0,1,1.22.82c.91,2.25,4.62,2.73,7.57,2.73a60.61,60.61,0,0,0,12.59-1.72,19.93,19.93,0,0,1-9-4A12.7,12.7,0,0,0,112,67.45a12.17,12.17,0,0,0-1.83-.15c-2.83,0-3.4,1.21-3.44,1.31a1.32,1.32,0,0,1-1.25.91h0a1.31,1.31,0,0,1-1.25-.91c0-.11-.62-1.31-3.44-1.31a12.4,12.4,0,0,0-1.84.15,12.66,12.66,0,0,0-5.9,2.75,20,20,0,0,1-9,4,60.61,60.61,0,0,0,12.59,1.72c3,0,6.66-.48,7.57-2.73A1.3,1.3,0,0,1,105.52,72.36Z" transform="translate(-0.68 -0.74)"/><path class="cls-1" d="M107.6,64.45a.69.69,0,0,1-.66-.47,1.55,1.55,0,0,0-1.42-.93,1.9,1.9,0,0,0-1.69,1,.7.7,0,0,1-1.24-.67,3.35,3.35,0,0,1,3-1.68,2.94,2.94,0,0,1,2.66,1.88.7.7,0,0,1-.44.89A.83.83,0,0,1,107.6,64.45Z" transform="translate(-0.68 -0.74)"/><path class="cls-1" d="M76.71,51.66,69.05,17.92V17.7a10.92,10.92,0,0,1,7.7-9.76c6-1.92,9.15-.38,11.79,1.71a19.08,19.08,0,0,1,2.84-3.48A19.64,19.64,0,0,1,105.48.74h.07c7,0,11.27,3,13.61,5.51a17,17,0,0,1,2.4,3.31c2.62-2.05,5.8-3.51,11.67-1.62a10.88,10.88,0,0,1,7.7,9.76v.2l0,.19-6.74,33.38-3.43-.7,6.69-33.14a7.45,7.45,0,0,0-5.26-6.35c-5.35-1.72-7.22-.08-10.06,2.4L120,15.49l-.79-2.59c-.11-.35-2.85-8.64-13.7-8.66h-.07c-11.16,0-14.75,8.7-14.78,8.79l-.92,2.31-1.89-1.66c-2.84-2.48-4.71-4.12-10-2.4a7.42,7.42,0,0,0-5.26,6.33l7.54,33.28Z" transform="translate(-0.68 -0.74)"/><path class="cls-1" d="M77.07,46l-1.33-1.39A43.06,43.06,0,0,1,84,38.83a44.65,44.65,0,0,1,21.35-5.78,42.28,42.28,0,0,1,21.26,5.79,35.55,35.55,0,0,1,7.69,5.84L132.88,46a34.44,34.44,0,0,0-7.31-5.52A40.42,40.42,0,0,0,105.34,35C88.81,35,77.19,45.92,77.07,46Z" transform="translate(-0.68 -0.74)"/><path class="cls-1" d="M102.83,34.72s-.24-5-.21-10.12c.06-10.63,1.15-11.77,1.56-12.2a1.23,1.23,0,0,1,.91-.42,1.47,1.47,0,0,1,1.07.48c.42.44,1.71,1.76,2.13,12.07.2,5,.11,9.73.1,9.78l-1.4,0c0-.05.11-5.17-.13-10.35-.4-8.77-1.44-10.26-1.72-10.51-.25.35-1.06,2.15-1.12,11,0,5.18.2,10.23.21,10.28Z" transform="translate(-0.68 -0.74)"/><path class="cls-1" d="M84,39c0-.05-1.28-4.27-2.35-8.77C79.62,21.84,80,19.78,80.42,19a1.33,1.33,0,0,1,.79-.68,1.46,1.46,0,0,1,1.22.18c.51.29,2,1.2,4.63,10.1C88.31,32.85,89.21,37,89.22,37l-1.37.3s-1-4.62-2.36-9.12c-2.32-7.77-3.62-8.51-3.84-8.58-.16.27-.66,1.84,1.24,9.89,1.08,4.59,2.4,9,2.41,9Z" transform="translate(-0.68 -0.74)"/><path class="cls-1" d="M125.74,39l-1.35-.41s1.34-4.44,2.42-9c1.89-8,1.39-9.62,1.23-9.89-.22.07-1.51.81-3.84,8.58-1.35,4.5-2.35,9.07-2.36,9.12l-1.37-.3s.92-4.18,2.16-8.47c2.59-8.9,4.12-9.81,4.63-10.1a1.47,1.47,0,0,1,1.22-.18,1.31,1.31,0,0,1,.79.68c.45.82.81,2.88-1.19,11.23C127,34.69,125.75,38.91,125.74,39Z" transform="translate(-0.68 -0.74)"/><path class="cls-1" d="M72,60.62S64.35,70.94,72,81l-5.55,3.17a10.11,10.11,0,0,1-1.87-8.45C65.77,70.8,69.58,61.91,72,60.62Z" transform="translate(-0.68 -0.74)"/><path class="cls-1" d="M138.65,61.12s7.68,10.32,0,20.41l5.55,3.18a10.11,10.11,0,0,0,1.87-8.45C144.91,71.3,141.1,62.41,138.65,61.12Z" transform="translate(-0.68 -0.74)"/><path class="cls-1" d="M62.84,154.92a13.25,13.25,0,0,1-2.83-.28c-3.45-.74-5.78-3.12-6.73-6.86a15.39,15.39,0,0,1-.39-5.18l3,.35c0,.31-.79,7.57,4.79,8.78,4,.87,11.06-1,14-4.71a5.06,5.06,0,0,0,.68-5.74C74.17,138.78,73,139,73,139l-1.19-2.73c1.28-.56,4.22-.5,6.2,3.72A8.1,8.1,0,0,1,77,148.87C73.86,152.8,67.7,154.92,62.84,154.92Z" transform="translate(-0.68 -0.74)"/><path class="cls-1" d="M67.38,162.51l-.65,0c-6-.37-7.78-6.43-7.89-9.59l3-.11c0,.26.31,6.43,5.09,6.72,3.76.23,10-2.4,11.81-5.81a3.6,3.6,0,0,0-.37-4.19,2.49,2.49,0,0,0-1.23-.83l.6-2.92a5.35,5.35,0,0,1,3,2,6.6,6.6,0,0,1,.59,7.39C79,159.5,72.2,162.51,67.38,162.51Z" transform="translate(-0.68 -0.74)"/><path class="cls-1" d="M80.12,142.59a4.36,4.36,0,0,1-.65,0c-3.91-.51-6.83-5.32-7.15-5.87l2.57-1.5c.63,1.06,2.88,4.15,5,4.41A2.4,2.4,0,0,0,82,138.7c1.88-1.88.88-5.24.36-6.59-1.51-4-5-7.68-7.33-7.81a3.45,3.45,0,0,0-2.62.77,4.8,4.8,0,0,0-1.3,2.89l-3-.16a7.67,7.67,0,0,1,2.29-5,6.32,6.32,0,0,1,4.77-1.52c4,.21,8.19,5.11,10,9.71,1.54,4,1.16,7.57-1,9.76A5.52,5.52,0,0,1,80.12,142.59Z" transform="translate(-0.68 -0.74)"/><path class="cls-1" d="M66.84,127.82h0s0,0,0,0l0,.05v0a.64.64,0,0,0-.15-.15,2.21,2.21,0,0,0-.51-.28,4.12,4.12,0,0,0-1-.21,10.27,10.27,0,0,0-3.28.32,21.57,21.57,0,0,0-2.11.6l-.28.1-.14,0-.07,0-.13,0h0l-.53.17c-.37.13-.75.29-1.13.45a15.29,15.29,0,0,0-2.24,1.22,9.4,9.4,0,0,0-2,1.7,5.29,5.29,0,0,0-1.14,2.17,5.17,5.17,0,0,0,.09,2.55,7.82,7.82,0,0,0,1.22,2.59A5.67,5.67,0,0,0,55.63,141a7.3,7.3,0,0,0,2.86.7h.77c.25,0,.51,0,.73-.07l.37-.07.42-.09c.28-.06.56-.12.85-.2A31.4,31.4,0,0,0,68.06,139a13.55,13.55,0,0,0,2.67-1.71,5.41,5.41,0,0,0,1.65-2.13,3.39,3.39,0,0,0,.24-1.16c0-.1,0-.2,0-.3s0-.2,0-.3,0-.2,0-.3l0-.15,0-.17-.06-.2,0-.15c0-.1-.06-.21-.1-.31s-.17-.42-.26-.61a4.29,4.29,0,0,0-.64-1,3.31,3.31,0,0,0-1.79-1.06,6.64,6.64,0,0,0-2.32-.06,16.48,16.48,0,0,0-2.34.5l-1.1.34-1,.35c-1.35.49-2.54.95-3.52,1.33l-1.32.51-1,.36-.83.29.66-.58.82-.67,1.14-.86a31,31,0,0,1,3.25-2.1,23.32,23.32,0,0,1,2.18-1.08,15.38,15.38,0,0,1,2.66-.86,10.52,10.52,0,0,1,1.55-.22,7.33,7.33,0,0,1,1.73.1,5,5,0,0,1,.9.23,5.1,5.1,0,0,1,.9.39,5.81,5.81,0,0,1,1.56,1.24,7.45,7.45,0,0,1,1.07,1.62,9.28,9.28,0,0,1,.37.86l.15.45.08.24,0,.2.06.22.06.25a4,4,0,0,1,.09.5,4.6,4.6,0,0,1,.06.52c0,.18,0,.35,0,.53a6.39,6.39,0,0,1-.41,2.12A7.19,7.19,0,0,1,74,138a9.73,9.73,0,0,1-1.39,1.47,16.32,16.32,0,0,1-3.21,2.14,28.47,28.47,0,0,1-3.47,1.48,37.08,37.08,0,0,1-3.59,1.08l-.91.21-.47.1a4.19,4.19,0,0,1-.51.1,10.47,10.47,0,0,1-1.06.1c-.35,0-.69,0-1,0a10.48,10.48,0,0,1-4-1A8.71,8.71,0,0,1,51.09,141a10,10,0,0,1-1-1.75c-.14-.3-.26-.61-.37-.91s-.12-.33-.17-.48l-.06-.2,0-.12,0-.12a8.2,8.2,0,0,1-.12-4A8.34,8.34,0,0,1,51.05,130a12.22,12.22,0,0,1,2.58-2.25,17.87,17.87,0,0,1,2.69-1.47c.45-.19.89-.37,1.34-.53l.68-.22.54-.19c.82-.27,1.62-.5,2.39-.68a13.36,13.36,0,0,1,4.25-.36,6.6,6.6,0,0,1,1.75.4,4.71,4.71,0,0,1,1.3.73,3.85,3.85,0,0,1,.73.78,3,3,0,0,1,.18.29l.07.13v0Z" transform="translate(-0.68 -0.74)"/><path class="cls-1" d="M81.74,151.7l-2-2.19h0c.12-.12,2.92-2.94,1.26-8.81l2.89-.81C86,147.61,81.92,151.54,81.74,151.7Z" transform="translate(-0.68 -0.74)"/><path class="cls-1" d="M148.06,154.72c-4.86,0-11-2.12-14.16-6.05a8.11,8.11,0,0,1-1-8.86c2-4.22,4.92-4.27,6.2-3.72l-1.2,2.74.07,0c-.43-.13-1.41.19-2.37,2.23a5,5,0,0,0,.68,5.73c2.47,3.11,7.78,4.93,11.82,4.93a10.81,10.81,0,0,0,2.2-.21c5.58-1.21,4.83-8.48,4.79-8.78l3-.35a15.69,15.69,0,0,1-.39,5.18c-1,3.74-3.28,6.11-6.73,6.86A13.25,13.25,0,0,1,148.06,154.72Z" transform="translate(-0.68 -0.74)"/><path class="cls-1" d="M143.52,162.31c-4.83,0-11.58-3-14-7.38a6.61,6.61,0,0,1,.58-7.39,5.39,5.39,0,0,1,3-2l.6,2.92h0a2.43,2.43,0,0,0-1.26.82,3.63,3.63,0,0,0-.36,4.2c1.85,3.41,8,6,11.81,5.81a4.79,4.79,0,0,0,4.3-3.31,11.15,11.15,0,0,0,.79-3.41l3,.11c-.11,3.15-1.9,9.22-7.89,9.58C144,162.3,143.74,162.31,143.52,162.31Z" transform="translate(-0.68 -0.74)"/><path class="cls-1" d="M130.78,142.39a5.52,5.52,0,0,1-4-1.79c-2.19-2.19-2.57-5.75-1-9.76,1.76-4.6,6-9.5,9.95-9.72a6.37,6.37,0,0,1,4.77,1.53,7.67,7.67,0,0,1,2.29,4.95l-3,.17a5.44,5.44,0,0,0-.65-2.08,3.24,3.24,0,0,0-3.27-1.59c-2.32.13-5.82,3.85-7.33,7.81-.52,1.35-1.52,4.7.36,6.58a2.39,2.39,0,0,0,2.13.9c2.1-.27,4.34-3.35,5-4.42l2.57,1.51c-.32.54-3.24,5.36-7.15,5.87A6.48,6.48,0,0,1,130.78,142.39Z" transform="translate(-0.68 -0.74)"/><path class="cls-1" d="M141.34,126.45v0l.07-.13a2.12,2.12,0,0,1,.18-.29,3.61,3.61,0,0,1,.73-.78,4.71,4.71,0,0,1,1.3-.73,6.6,6.6,0,0,1,1.75-.4,13.36,13.36,0,0,1,4.25.36c.77.18,1.57.41,2.39.68l.54.19.68.22c.45.16.89.34,1.34.53a17.87,17.87,0,0,1,2.69,1.47,12.22,12.22,0,0,1,2.58,2.25,7.89,7.89,0,0,1,1.66,7.45l0,.12,0,.12-.07.2a4.5,4.5,0,0,1-.16.48c-.11.3-.23.61-.37.91a10,10,0,0,1-1,1.75,8.71,8.71,0,0,1-3.23,2.69,10.48,10.48,0,0,1-4,1h-1c-.35,0-.68-.05-1.06-.1-.22,0-.35-.07-.51-.1l-.47-.1-.91-.21a37.08,37.08,0,0,1-3.59-1.08,27.05,27.05,0,0,1-3.47-1.49,16.18,16.18,0,0,1-3.22-2.13,10.17,10.17,0,0,1-1.38-1.47,7.36,7.36,0,0,1-1-1.84,6.44,6.44,0,0,1-.41-2.12c0-.18,0-.35,0-.53s0-.35.05-.52.06-.34.1-.51l.06-.24.06-.23,0-.19.08-.24L136,131a9.28,9.28,0,0,1,.37-.86,7.77,7.77,0,0,1,1.07-1.63,6.23,6.23,0,0,1,1.56-1.24,5.35,5.35,0,0,1,.89-.39,8.09,8.09,0,0,1,.91-.23,6.82,6.82,0,0,1,1.73-.09,9.49,9.49,0,0,1,1.55.22,15,15,0,0,1,2.65.86c.8.34,1.53.71,2.19,1.07a32.55,32.55,0,0,1,3.25,2.11c.43.31.81.61,1.14.87s.59.48.81.66c.45.37.67.57.67.57l-.83-.28-1-.37-1.32-.5c-1-.38-2.17-.85-3.52-1.33l-1-.35L146,129.7a14.72,14.72,0,0,0-2.34-.5,6.85,6.85,0,0,0-2.31.05,3.35,3.35,0,0,0-1.79,1.07,4.29,4.29,0,0,0-.64,1c-.09.19-.18.39-.26.61s-.08.21-.11.31l0,.15-.06.2,0,.17,0,.15c0,.1,0,.2-.05.3s0,.2,0,.3,0,.2,0,.3a3.29,3.29,0,0,0,.24,1.15,5.37,5.37,0,0,0,1.65,2.14,13.72,13.72,0,0,0,2.67,1.71,31.4,31.4,0,0,0,6.43,2.28l.85.2.41.09.37.07c.22,0,.49.06.74.07a6.62,6.62,0,0,0,.77,0,7.12,7.12,0,0,0,2.86-.69A5.67,5.67,0,0,0,157.4,139a7.87,7.87,0,0,0,1.22-2.6,5.13,5.13,0,0,0,.09-2.54,5.19,5.19,0,0,0-1.15-2.17,9.35,9.35,0,0,0-1.95-1.7,15.82,15.82,0,0,0-2.24-1.22c-.38-.17-.76-.32-1.13-.45l-.53-.17h0l-.13,0-.08,0-.14,0-.27-.1c-.75-.25-1.45-.45-2.11-.6a10.27,10.27,0,0,0-3.28-.32,4.12,4.12,0,0,0-1,.21,2.26,2.26,0,0,0-.51.27,1.82,1.82,0,0,0-.15.15h0a.14.14,0,0,0,0-.06h0Z" transform="translate(-0.68 -0.74)"/><path class="cls-1" d="M129.16,151.5c-.18-.16-4.28-4.09-2.1-11.8l2.89.81c-1.69,6,1.22,8.77,1.25,8.8Z" transform="translate(-0.68 -0.74)"/><path class="cls-1" d="M72.94,124.19a5.67,5.67,0,0,1,2.52-6.66,5.12,5.12,0,0,1,.8-3.28,6.36,6.36,0,0,1,4.25-2.5l.42,3.48-.21-1.74.23,1.74a2.81,2.81,0,0,0-1.77,1,2.27,2.27,0,0,0-.08,1.85l.47,1.66L78,120.2h0a3.54,3.54,0,0,0-1.21.77,2.07,2.07,0,0,0-.44,2.24Z" transform="translate(-0.68 -0.74)"/><path class="cls-1" d="M98.92,127.13s.12.34.35.89c.11.28.26.61.44,1a11,11,0,0,0,.65,1.11,7.21,7.21,0,0,0,.91,1.09,4.92,4.92,0,0,0,1.16.86,5.21,5.21,0,0,0,1.4.53,8.45,8.45,0,0,0,1.63.2h.87l.35,0c.12,0,.25,0,.37-.06a4.67,4.67,0,0,0,1.33-.48,4.35,4.35,0,0,0,1.08-.89,7.19,7.19,0,0,0,.85-1.14,11.63,11.63,0,0,0,.6-1.15c.17-.36.3-.7.41-1,.22-.56.33-.9.33-.9a4.65,4.65,0,0,1,.27,1,6.75,6.75,0,0,1,.12,1.13,7.6,7.6,0,0,1-.11,1.52,6.25,6.25,0,0,1-.59,1.79,5.54,5.54,0,0,1-1.38,1.78,6,6,0,0,1-2.19,1.17,6,6,0,0,1-.61.14,6.32,6.32,0,0,1-.65.1h-1.15a8.71,8.71,0,0,1-2.35-.4,6.82,6.82,0,0,1-2.1-1.15,6.15,6.15,0,0,1-1.44-1.69,6.28,6.28,0,0,1-.69-1.76,7.24,7.24,0,0,1-.19-1.51,7.39,7.39,0,0,1,.08-1.15c0-.31.12-.55.16-.71A1.68,1.68,0,0,1,98.92,127.13Z" transform="translate(-0.68 -0.74)"/><path class="cls-1" d="M106.09,135.55l-.08.36a3.11,3.11,0,0,1-.08.37c-.07.26-.13.54-.2.79-.14.51-.31,1-.49,1.52s-.38,1-.6,1.48-.47,1-.73,1.43a18.37,18.37,0,0,1-4.06,5,21.12,21.12,0,0,1-5.39,3.35,23.74,23.74,0,0,1-3,1.07c-.51.14-1,.27-1.54.38-.26.05-.52.11-.78.15l-.41.07-.2,0-.25,0-1.64.19-.25-1.65-.09-.59-.08-.58c0-.38-.09-.76-.13-1.15-.08-.76-.14-1.53-.19-2.3a44.79,44.79,0,0,1-.06-4.64,26.93,26.93,0,0,1,.59-4.75,15,15,0,0,1,.74-2.4,10.29,10.29,0,0,1,1.32-2.36l.8,2.73-.43-.18-.39-.17-.78-.36q-.77-.37-1.5-.78a30.56,30.56,0,0,1-2.88-1.78,25.91,25.91,0,0,1-2.68-2.14c-.21-.2-.42-.4-.62-.61l-.6-.64c-.19-.22-.38-.44-.56-.68s-.36-.47-.53-.7l2.24-1.66c.15.18.3.37.46.55s.33.35.5.53.34.34.53.5l.55.49a21.49,21.49,0,0,0,2.44,1.74,28.5,28.5,0,0,0,2.67,1.44c.46.22.92.43,1.39.62l.7.28.35.13.32.11,2.16.69-1.36,2a6.39,6.39,0,0,0-.85,1.53,11.86,11.86,0,0,0-.57,1.86,22.87,22.87,0,0,0-.51,4.12,40.86,40.86,0,0,0,.06,4.28c0,.72.1,1.43.18,2.15l.12,1.07.07.53.08.51L88,148h.12l.15,0,.32,0,.64-.13c.44-.09.87-.2,1.3-.32a20.61,20.61,0,0,0,2.53-.91,17.49,17.49,0,0,0,4.5-2.79,15.23,15.23,0,0,0,3.3-4c.21-.38.41-.77.59-1.17s.35-.8.5-1.22.28-.83.4-1.26c.06-.22.11-.41.16-.62s0-.23.08-.35l.08-.35Z" transform="translate(-0.68 -0.74)"/><path class="cls-1" d="M90.63,141.84s3.77-3.09,2-10.44l-2,.49A18.07,18.07,0,0,1,90.63,141.84Z" transform="translate(-0.68 -0.74)"/><path class="cls-1" d="M90.68,125.53s2.63,2.43,5.55,1.6,2.1-5.44,2.1-5.44l-1.93-.36S98.86,127,90.68,125.53Z" transform="translate(-0.68 -0.74)"/><path class="cls-1" d="M137,124.12l-3.37-1a2,2,0,0,0-.49-2.29,3.66,3.66,0,0,0-1.15-.72l-1.61-.52.46-1.62a2.27,2.27,0,0,0-.07-1.85,2.85,2.85,0,0,0-1.78-1l.45-3.48a6.3,6.3,0,0,1,4.24,2.5,5.1,5.1,0,0,1,.8,3.27A5.67,5.67,0,0,1,137,124.12Z" transform="translate(-0.68 -0.74)"/><path class="cls-1" d="M108.09,134.76l.18.67c.06.2.12.39.19.6.13.41.27.82.43,1.22s.33.79.51,1.18.37.77.58,1.14a16.79,16.79,0,0,0,3.08,4,16.59,16.59,0,0,0,4.13,2.89,17.89,17.89,0,0,0,2.36,1c.4.13.81.24,1.21.34l.61.12.29.05.14,0,.11,0-1.81,1.13.08-.22.08-.26.16-.51c.11-.35.21-.71.3-1.06.18-.71.34-1.42.47-2.14a23.12,23.12,0,0,0,.4-4.28,12.25,12.25,0,0,0-.63-4,6.63,6.63,0,0,0-2.06-3l-2.8-2.2,3.42-.86.13,0,.15,0,.31-.09.63-.2c.42-.14.84-.28,1.26-.44a24,24,0,0,0,2.44-1.06,21.38,21.38,0,0,0,2.28-1.31,6.3,6.3,0,0,0,.53-.37c.18-.12.35-.25.52-.38l.49-.41.48-.42,2,1.95c-.17.18-.35.38-.54.55l-.56.53-.58.5-.6.47a24.2,24.2,0,0,1-2.51,1.66c-.86.5-1.75.95-2.65,1.36-.45.21-.91.4-1.37.58l-.71.27-.36.13-.18.06-.2.07.62-3.06a11.71,11.71,0,0,1,1,1A9.32,9.32,0,0,1,123,133a9.77,9.77,0,0,1,.72,1.2,12.56,12.56,0,0,1,.54,1.26,14.1,14.1,0,0,1,.64,2.58,18.51,18.51,0,0,1,.2,2.56,26.94,26.94,0,0,1-.46,4.94c-.15.81-.32,1.6-.53,2.39-.1.4-.21.79-.33,1.18l-.18.59-.1.3-.11.32-.45,1.29-1.36-.15-.13,0h-.11l-.21,0-.4-.07-.76-.16c-.51-.12-1-.25-1.49-.41a21.1,21.1,0,0,1-2.84-1.15,20,20,0,0,1-5-3.5,20.6,20.6,0,0,1-3.72-4.85c-.24-.44-.47-.9-.69-1.35s-.41-.92-.59-1.39-.35-.95-.51-1.42c-.08-.24-.15-.5-.23-.74l-.19-.68Z" transform="translate(-0.68 -0.74)"/><path class="cls-1" d="M118.13,141.91s-3.78-3.1-2-10.45l2,.49A18.1,18.1,0,0,0,118.13,141.91Z" transform="translate(-0.68 -0.74)"/><path class="cls-1" d="M119.05,125.46s-2.63,2.44-5.55,1.61-2.1-5.45-2.1-5.45l1.92-.35S110.87,126.91,119.05,125.46Z" transform="translate(-0.68 -0.74)"/><path class="cls-1" d="M125.72,76.41a1.16,1.16,0,0,0-.88-.3H86.14a1.16,1.16,0,0,0-1.23,1.15.78.78,0,0,0,0,.22.87.87,0,0,0,0,.36,27.84,27.84,0,0,0,3.28,9.78,10.28,10.28,0,0,0,2.16,3.09h0l0,.13c.11.14.23.31.35.45l.09.13a18.06,18.06,0,0,0,14.48,6.45c5.61,0,10.19-1.67,13.65-5a19.51,19.51,0,0,0,4.23-5.51,26.15,26.15,0,0,0,2.85-10.13,1.12,1.12,0,0,0-.34-.86ZM98.13,89.26h0a8.93,8.93,0,0,1,6.77,2.89l.59.68.59-.68a8.93,8.93,0,0,1,6.77-2.89,9.49,9.49,0,0,1,5,1.39c-3.1,3-7.27,4.6-12.46,4.6a16.16,16.16,0,0,1-12-4.73,9.4,9.4,0,0,1,4.78-1.26Zm25.35-10.61h0c-.08.63-.2,1.2-.39,2A259.88,259.88,0,0,1,88,80.76c-.23-.89-.39-2.11-.48-2.11Z" transform="translate(-0.68 -0.74)"/><path class="cls-7" d="M158.45,140.81l.4-1.08a.25.25,0,0,0,0-.07Z" transform="translate(-0.68 -0.74)"/><path class="cls-1" d="M65.14,128.2,61.51,123A3,3,0,0,0,59,121.69l-4.2-6,4.09-10.52a1.6,1.6,0,0,0-.18-1.48L47.27,87.27a1.57,1.57,0,0,0-2.19-.39L28.88,98.13a1.58,1.58,0,0,0-.39,2.2L40,116.93a1.59,1.59,0,0,0,1.31.68l10.75-.07,4.2,6a3,3,0,0,0,.33,2.78L59.8,131l.26-.05.52-.11c.21-.05.42-.08.63-.12l.22.31a13.47,13.47,0,0,1,2.12-1.19l.09-.15a2.87,2.87,0,0,1,.48-.61l-.09-.13c.36-.25.73-.48,1.11-.71ZM46.61,95h0a1.24,1.24,0,0,1,1.61.55l5.1,7.34a1.22,1.22,0,0,1-.06,1.69,1.24,1.24,0,0,1-1.6-.54l-5.1-7.35a1.23,1.23,0,0,1,0-1.69Zm-4.07,17h0a1.22,1.22,0,0,1-1.6-.54l-5.1-7.34A1.05,1.05,0,1,1,37.49,103l5.1,7.34a1.22,1.22,0,0,1-.05,1.69Zm3.81-2.65h0a1.23,1.23,0,0,1-1.6-.54l-5.1-7.34a1.06,1.06,0,1,1,1.66-1.16l5.1,7.35a1.22,1.22,0,0,1-.06,1.69Zm3.53-2.45h0a1.22,1.22,0,0,1-1.6-.54l-5.1-7.34a1.05,1.05,0,1,1,1.65-1.15l5.1,7.34A1.22,1.22,0,0,1,49.88,106.93Z" transform="translate(-0.68 -0.74)"/><path class="cls-1" d="M176.81,91.85a12.92,12.92,0,0,0-3.1-4.51h0l-.06,0,0,0h0l-.06,0,0,0h0l-.05,0,0,0h0a12.88,12.88,0,0,0-5.43-.68c-2.8.24-6.79,1.56-9.85,6.45-6.3,10.08-4.41,21.52-3.9,24l-3.52,5.79a2.43,2.43,0,0,0-2.23,1.15L145.33,129c.35.1.7.22,1,.35a3.2,3.2,0,0,1,.87,0,19,19,0,0,1,3.07.72l2.29-3.75a2.43,2.43,0,0,0,0-2.51l3.52-5.79c2.41-.67,13.44-4.25,19.49-14.49,2.93-5,2.27-9.11,1.2-11.71Zm-6.48,8.3h0a57.47,57.47,0,0,1-9.82,10.67L170,95.25l2.86-4.71c.57,1.65.75,4.79-2.52,9.61Zm-14.49,11.43h0c-.2-4.55.34-11.36,4.17-17.48A10.87,10.87,0,0,1,166.52,89a18.39,18.39,0,0,0-5,6.12,62.73,62.73,0,0,0-5.7,16.49Zm7.66-15.43h0c2.77-5.11,5.71-6.52,7.5-6.85l-12.46,20.48a57.57,57.57,0,0,1,5-13.63Zm10.19,6.28h0c-3.71,6.27-9.6,9.89-13.74,11.79a62.82,62.82,0,0,0,12.22-12.81,17.89,17.89,0,0,0,3.09-7.07A10.91,10.91,0,0,1,173.69,102.43Z" transform="translate(-0.68 -0.74)"/><text class="cls-9" transform="translate(244.18 121.4)">Tato</text><text class="cls-10" transform="translate(216.61 75.44)"><tspan class="cls-11">L</tspan><tspan x="10.41" y="0">as Delicias de</tspan></text><path class="cls-12" d="M243.12,130.68c15.21-7.24,36.12-8.5,52-3.1,10.28,3.5,26,4.89,35.52-2a103.4,103.4,0,0,0,9.95-8.51c-8.28,18-29.92,20.26-47.1,15.33-13.45-3.86-33.87-2.33-46.54,4.3a3.54,3.54,0,1,1-3.82-6Z" transform="translate(-0.68 -0.74)"/></svg>