<svg id="Capa_1" data-name="Capa 1" xmlns="http://www.w3.org/2000/svg" viewBox="0 0 205.16 162.93"><defs><style>.cls-1,.cls-6{fill:#000b27;}.cls-1,.cls-2,.cls-3,.cls-4,.cls-5,.cls-6,.cls-7{fill-rule:evenodd;}.cls-2{fill:#f2ca30;}.cls-3{fill:#f2cf9f;}.cls-4{fill:#cc2128;}.cls-5{fill:#fff;}.cls-6{opacity:0.2;}.cls-7{fill:#905744;}</style></defs><title>tato_muñeco</title><path class="cls-1" d="M151,30.89a1.16,1.16,0,0,1-.64-.19,1.13,1.13,0,0,1-.3-1.58L164.4,7.88A1.14,1.14,0,0,1,166,7.57a1.15,1.15,0,0,1,.31,1.59L151.91,30.39A1.12,1.12,0,0,1,151,30.89Z" transform="translate(-0.88 -0.74)"/><path class="cls-1" d="M160.92,38.13a1.15,1.15,0,0,1-.81-1.94l10.34-10.62a1.14,1.14,0,1,1,1.63,1.59L161.74,37.78A1.15,1.15,0,0,1,160.92,38.13Z" transform="translate(-0.88 -0.74)"/><path class="cls-1" d="M174.56,24.24a1.11,1.11,0,0,1-.77-.3,1.13,1.13,0,0,1-.07-1.61l3.16-3.44a1.14,1.14,0,1,1,1.68,1.54l-3.16,3.44A1.16,1.16,0,0,1,174.56,24.24Z" transform="translate(-0.88 -0.74)"/><path class="cls-1" d="M178.21,70.14a1.14,1.14,0,0,1-.37-2.21l23.63-8.06a1.14,1.14,0,1,1,.74,2.16l-23.64,8A1.13,1.13,0,0,1,178.21,70.14Z" transform="translate(-0.88 -0.74)"/><path class="cls-1" d="M173.34,53.52a1.14,1.14,0,0,1-.59-2.11l11.66-7a1.14,1.14,0,1,1,1.18,2l-11.66,7A1.16,1.16,0,0,1,173.34,53.52Z" transform="translate(-0.88 -0.74)"/><path class="cls-1" d="M196.64,87.54h0l-17.48-.26a1.14,1.14,0,0,1,0-2.28l17.47.26a1.14,1.14,0,0,1,0,2.28Z" transform="translate(-0.88 -0.74)"/><path class="cls-1" d="M203.9,116.29a1.07,1.07,0,0,1-.39-.07l-27.25-9.77a1.14,1.14,0,1,1,.77-2.14l27.25,9.77a1.14,1.14,0,0,1-.38,2.21Z" transform="translate(-0.88 -0.74)"/><path class="cls-1" d="M177.66,126.4a1.12,1.12,0,0,1-.67-.22l-6.07-4.44a1.14,1.14,0,0,1,1.34-1.84l6.07,4.44a1.14,1.14,0,0,1,.25,1.59A1.12,1.12,0,0,1,177.66,126.4Z" transform="translate(-0.88 -0.74)"/><path class="cls-1" d="M56,30.79a1.15,1.15,0,0,1-.94-.5L40.64,9.05a1.14,1.14,0,0,1,1.89-1.28L56.9,29a1.13,1.13,0,0,1-.3,1.58A1.18,1.18,0,0,1,56,30.79Z" transform="translate(-0.88 -0.74)"/><path class="cls-1" d="M46,38a1.17,1.17,0,0,1-.82-.34L34.85,27.06a1.14,1.14,0,1,1,1.63-1.59L46.82,36.08A1.14,1.14,0,0,1,46,38Z" transform="translate(-0.88 -0.74)"/><path class="cls-1" d="M32.37,24.13a1.15,1.15,0,0,1-.84-.36l-3.16-3.44a1.14,1.14,0,0,1,1.68-1.55l3.16,3.44a1.15,1.15,0,0,1-.07,1.61A1.13,1.13,0,0,1,32.37,24.13Z" transform="translate(-0.88 -0.74)"/><path class="cls-1" d="M28.72,70a1.24,1.24,0,0,1-.37-.06L4.72,61.92a1.14,1.14,0,1,1,.73-2.15l23.64,8A1.14,1.14,0,0,1,28.72,70Z" transform="translate(-0.88 -0.74)"/><path class="cls-1" d="M33.59,53.42a1.15,1.15,0,0,1-.59-.17l-11.66-7A1.14,1.14,0,0,1,21,44.64a1.15,1.15,0,0,1,1.57-.39l11.66,7a1.14,1.14,0,0,1-.59,2.12Z" transform="translate(-0.88 -0.74)"/><path class="cls-1" d="M10.28,87.43a1.14,1.14,0,0,1-1.14-1.12,1.15,1.15,0,0,1,1.13-1.16l17.47-.25A1.14,1.14,0,0,1,28.9,86a1.12,1.12,0,0,1-1.12,1.15l-17.48.26Z" transform="translate(-0.88 -0.74)"/><path class="cls-1" d="M5,87.4H5l-3,0a1.14,1.14,0,1,1,0-2.28l3,0A1.14,1.14,0,0,1,5,87.4Z" transform="translate(-0.88 -0.74)"/><path class="cls-1" d="M3,116.18A1.14,1.14,0,0,1,2.65,114L29.9,104.2a1.14,1.14,0,0,1,.77,2.15L3.42,116.12A1.32,1.32,0,0,1,3,116.18Z" transform="translate(-0.88 -0.74)"/><path class="cls-1" d="M29.27,126.3a1.15,1.15,0,0,1-.92-.47,1.14,1.14,0,0,1,.25-1.59l6.07-4.44A1.14,1.14,0,1,1,36,121.64l-6.07,4.44A1.12,1.12,0,0,1,29.27,126.3Z" transform="translate(-0.88 -0.74)"/><path class="cls-1" d="M201.93,87.5a1.14,1.14,0,0,1,0-2.28l3,0a1.14,1.14,0,1,1,0,2.28l-3,0Z" transform="translate(-0.88 -0.74)"/><path class="cls-2" d="M103.52,27.6a66.29,66.29,0,0,0,0,132.58c.66,0,1.31,0,2,0V27.63C104.83,27.61,104.18,27.6,103.52,27.6Z" transform="translate(-0.88 -0.74)"/><path class="cls-2" d="M169.81,93.89a66.29,66.29,0,0,0-64.32-66.26V160.15A66.29,66.29,0,0,0,169.81,93.89Z" transform="translate(-0.88 -0.74)"/><path class="cls-3" d="M83.18,46.94S70.11,54,67.41,68.22s-3.88,33.52,13.51,45.27,25.63,10.1,32.25,7.84,25.92-6.22,30.62-26.65,1.45-21,1.45-21-4.91-22.18-22.54-29.43C102.21,35.86,83.18,46.94,83.18,46.94Z" transform="translate(-0.88 -0.74)"/><path class="cls-4" d="M98.64,86s-8,.2-6.31,3.59,8,8.37,14.27,7.46,14.61-3.54,13.26-7.92S98.64,86,98.64,86Z" transform="translate(-0.88 -0.74)"/><path class="cls-3" d="M82.05,93.63c0,6.43-5.63,11.64-12.58,11.64s-12.58-5.21-12.58-11.64S62.52,82,69.47,82,82.05,87.2,82.05,93.63Z" transform="translate(-0.88 -0.74)"/><path class="cls-3" d="M156.07,94.9c0,6.43-5.64,11.64-12.58,11.64S130.9,101.33,130.9,94.9s5.64-11.64,12.59-11.64S156.07,88.47,156.07,94.9Z" transform="translate(-0.88 -0.74)"/><path class="cls-3" d="M84.07,132s-5.9-9.8-10.35-9-3,4.49-3,4.49-7-2.44-9-1.57-11.56,5-10.95,8.63a42.46,42.46,0,0,0,3.07,8.75s1.27,8.44,5.95,9.3c0,0,1,7.62,6.28,8.5s15.64-4.18,14.85-10.41a15.59,15.59,0,0,0,1.71-10.17S84.86,134.61,84.07,132Z" transform="translate(-0.88 -0.74)"/><path class="cls-3" d="M141,125.53s-5.09-4.27-7.77-1.83-7.12,10.48-6,14.58l1.35,2.62s-.45,7.83,1.88,9.5c0,0,.7,9.27,16.15,9.86,0,0,3.72-3.45,4.24-6.34,0,0,6-2.62,6-11.34,0,0,4.56-5.57,2.9-10.83,0,0-6.54-6.48-18.13-6.22Z" transform="translate(-0.88 -0.74)"/><path class="cls-4" d="M80.08,113.7a7.51,7.51,0,0,0-1.35,4c0,2.16-3.42,3.6-3.42,3.6s0,2.81.67,3,13.29,7.07,13.29,7.07-1.63,13-.91,15.63,7.14,3.32,11.11-2.4S106,134.27,106,134.27s5,13.93,15.33,14.73a13.88,13.88,0,0,0-1.1-16.69s7.47-2.42,11.4-6.78l3.93-4.36L134,118.6l-2.55-4.36s-13.13,6.46-17.86,6.64S93.44,121.67,80.08,113.7Z" transform="translate(-0.88 -0.74)"/><path class="cls-5" d="M87,77.7,87.31,82s30.05,4,36,0c0,0,1.88-3.28,1.71-4.28S89.66,78.88,87,77.7Z" transform="translate(-0.88 -0.74)"/><path class="cls-5" d="M79.51,48.66s-11.3-30.17-7.27-34.89S81.34,7,88.36,11.6l.91,1.08S93.63-1,108.88,2.72c0,0,11.7,3.72,12.25,9.66,0,0,3.47-4.59,8-3.55s9.38,5.6,9.38,5.6l-5.31,35.08S106.94,29.9,79.51,48.66Z" transform="translate(-0.88 -0.74)"/><path class="cls-5" d="M79.57,161.16c6.54,0,13.06.66,19.59,1,3.26.17,6.53.26,9.79.13a55.32,55.32,0,0,0,8.8-1,3,3,0,0,1,3.4,1.43A81.5,81.5,0,0,0,134,157.56s-5.55-3.86-4-6.05-.89-4.49-.89-4.49l-.62-6.12s-3.84-7.06-.37-11.22l-9.87,2.49s3.9,2.65,4.21,5.17.44,11.86-1.11,13.06-14.3-10.94-14.76-14.6c0,0-9.53,12.67-17.33,13.2,0,0-4.72-2.1-2.08-7.9a67.49,67.49,0,0,0,3.64-9.5l-7.65-1.71s3.32,6.94-.27,9.77c0,0,1,4.94-.14,7.57a34.41,34.41,0,0,0-1.85,6.89s-6.81,5.18-4.31,6.33c.32.15,1,.48,2,.9A2.66,2.66,0,0,1,79.57,161.16Z" transform="translate(-0.88 -0.74)"/><path class="cls-1" d="M158,154.27l-4.95-3.08a11,11,0,0,1-1.63.87,2.83,2.83,0,0,1,0,1.84l4.88,3a1.58,1.58,0,1,0,1.67-2.68Z" transform="translate(-0.88 -0.74)"/><path class="cls-6" d="M133.4,158.4c-.14-.66-.28-1.27-.32-1.42a6.84,6.84,0,0,1,.86.53v0s0,0,0,0a6.46,6.46,0,0,1,1.73,1.84l-2,.18.25-2a4.73,4.73,0,0,1-.54.85c.08.4.16.81.23,1.14l-1.4.13a14.08,14.08,0,0,0,1.17-1.27ZM129,141.74h0a12.56,12.56,0,0,1,0,1.5c-.07.66-.16,1.28-.29,1.94.07-.5.19-1.79.32-3.44Zm-19.94,19.61h0c.82,0,1.76.1,2.78.14l-2.63.24-.15-.38Zm34.23-.23h0a26.6,26.6,0,0,1-5.74-1c1.73.17,3.45.35,5.18.51.9.08,1.8.15,2.7.2A4.71,4.71,0,0,1,143.31,161.12Z" transform="translate(-0.88 -0.74)"/><path class="cls-1" d="M141.54,160.64a15.16,15.16,0,0,1-3.26-1.39,3,3,0,0,1-1.14-1.11A220.73,220.73,0,0,1,105,160.52a205.06,205.06,0,0,1-30.1-2.18,2.7,2.7,0,0,1-.71.63,15,15,0,0,1-4,1.8,206.37,206.37,0,0,0,34.86,2.9A223.54,223.54,0,0,0,141.54,160.64Z" transform="translate(-0.88 -0.74)"/><path class="cls-1" d="M105.44,123.44a42,42,0,0,1-17.51-3.78l-.81-.38-.06,0a42.81,42.81,0,0,1-16.25-13.63l-.18-.25-.06-.24a42.07,42.07,0,0,1-7.5-24.07c0-.94,0-1.9.09-2.85l-.11-.41,0-.31a42.39,42.39,0,0,1,59-35.42l0,0,.72.31a42.38,42.38,0,0,1,24.85,35.15l0,.31-.11.39c.06.93.09,1.85.09,2.74a42.14,42.14,0,0,1-7.44,24l-.12.44-.18.25a42.37,42.37,0,0,1-34.49,17.75Zm-31.59-19.6h0A39,39,0,0,0,88.58,116.1l0,0,.75.35a38.92,38.92,0,0,0,47.52-12.57l.12-.41.17-.25a38.64,38.64,0,0,0,7-22.24c0-.91,0-1.85-.1-2.79l0-.3.1-.37a38.88,38.88,0,0,0-22.77-31.93l-.66-.29,0,0a38.6,38.6,0,0,0-15.38-3.16A39.07,39.07,0,0,0,66.59,77.48l.11.39,0,.31c-.07,1-.11,1.93-.11,2.89a38.66,38.66,0,0,0,7,22.31l.18.25Z" transform="translate(-0.88 -0.74)"/><path class="cls-1" d="M144.59,107.33h0l-.77,0A12.48,12.48,0,0,1,139,106L137,105l1.37-1.7a29,29,0,0,0,6.48-16.65c.05-.8.06-1.62.05-2.44l-.05-2.17,2.14.42a12.54,12.54,0,0,1-2.43,24.83Zm-2-3.72h0a9.79,9.79,0,0,0,1.44.2l.56,0a9,9,0,0,0,3.8-17.22c0,.09,0,.19,0,.29A32.58,32.58,0,0,1,142.59,103.61Z" transform="translate(-0.88 -0.74)"/><path class="cls-1" d="M151.54,91.94l-.13,0-.33.12-.49.21c-.18.07-.38.18-.6.28s-.45.23-.68.38l-.36.22-.35.26a4.29,4.29,0,0,0-.35.28c-.12.1-.24.19-.35.3l-.33.33-.16.16-.16.18c-.2.25-.41.47-.58.73l-.27.37-.13.18-.11.19c-.15.26-.31.49-.44.73s-.24.47-.35.67-.1.21-.15.3l-.12.29-.2.45c-.12.25-.18.4-.18.4l-2.37-1.15.26-.43.29-.49.19-.29c.07-.11.15-.21.23-.32s.34-.46.53-.71.43-.49.65-.75l.17-.19.2-.19.39-.36a8.33,8.33,0,0,1,.85-.7l.22-.17.23-.15.46-.29.48-.25a5.08,5.08,0,0,1,.47-.23l.47-.19.45-.15a6.43,6.43,0,0,1,.86-.19,4.91,4.91,0,0,1,.74,0,3.1,3.1,0,0,1,.57,0,2,2,0,0,1,.36.08Z" transform="translate(-0.88 -0.74)"/><path class="cls-1" d="M148.8,99.33l-.12-.18a2.08,2.08,0,0,0-.15-.2l-.2-.25a3.25,3.25,0,0,0-.26-.27l-.3-.27c-.11-.08-.22-.18-.34-.25a2,2,0,0,0-.37-.21l-.18-.1-.19-.07a2.92,2.92,0,0,0-.36-.11,2,2,0,0,0-.34-.06l-.15,0h-.15a1.91,1.91,0,0,0-.24,0l-.19,0h-.16l.5-2.58.26.12.29.14.35.22.19.13c.07,0,.13.1.2.15s.27.22.4.35a3.6,3.6,0,0,1,.37.41l.17.22.15.23a3.67,3.67,0,0,1,.27.46c.08.16.14.32.2.47a3.81,3.81,0,0,1,.15.44c0,.14.07.27.1.39s0,.24.06.33,0,.19,0,.26S148.8,99.33,148.8,99.33Z" transform="translate(-0.88 -0.74)"/><path class="cls-1" d="M66.88,107.33A12.54,12.54,0,0,1,64.45,82.5l2.14-.42,0,2.17c0,.82,0,1.64,0,2.44a29.08,29.08,0,0,0,6.48,16.65l1.37,1.7-2,1a12.48,12.48,0,0,1-4.84,1.29l-.77,0Zm-3.8-20.72h0a9,9,0,0,0,3.8,17.22l.56,0a9.79,9.79,0,0,0,1.44-.2A32.58,32.58,0,0,1,63.09,86.9C63.09,86.8,63.08,86.7,63.08,86.61Z" transform="translate(-0.88 -0.74)"/><path class="cls-1" d="M59.94,91.94l.12,0a1.67,1.67,0,0,1,.35-.08,3.1,3.1,0,0,1,.57,0,4.91,4.91,0,0,1,.74,0,6.11,6.11,0,0,1,.86.19l.46.15.46.19a3.42,3.42,0,0,1,.47.23c.16.08.33.16.48.25l.46.29.23.15.22.17a8.33,8.33,0,0,1,.85.7l.39.36.2.19.17.19c.23.26.45.5.65.75s.37.48.53.71.16.21.23.32l.19.29c.11.19.21.36.3.49l.25.43L66.75,99s-.06-.15-.18-.4-.12-.28-.2-.45l-.12-.29-.15-.3c-.11-.2-.23-.43-.35-.67s-.29-.47-.44-.73L65.2,96l-.13-.18-.27-.37c-.17-.26-.38-.48-.58-.73l-.16-.18-.16-.16L63.57,94c-.11-.11-.23-.2-.35-.3a2.39,2.39,0,0,0-.35-.28l-.35-.26L62.16,93c-.23-.15-.46-.25-.68-.38s-.42-.21-.6-.28l-.49-.21L60.06,92Z" transform="translate(-0.88 -0.74)"/><path class="cls-1" d="M62.67,99.33a1.73,1.73,0,0,1,0-.22,1.48,1.48,0,0,1,0-.26c0-.09,0-.21.05-.33s.06-.25.1-.39.1-.29.15-.44.12-.31.2-.47.17-.31.27-.46l.15-.23.17-.22a4.89,4.89,0,0,1,.37-.41c.13-.13.27-.24.4-.35s.13-.11.2-.15l.19-.13.36-.22.28-.14.26-.12.5,2.58h-.16l-.19,0a1.91,1.91,0,0,0-.24,0h-.15l-.15,0a2.21,2.21,0,0,0-.34.06,2.92,2.92,0,0,0-.36.11l-.19.07-.18.1a2,2,0,0,0-.37.21c-.12.07-.23.17-.34.25l-.3.27-.26.27-.2.25a2.08,2.08,0,0,0-.15.2Z" transform="translate(-0.88 -0.74)"/><path class="cls-1" d="M116.94,110.57l.06.39c0,.07,0,.13,0,.22s0,.18,0,.28,0,.21,0,.32,0,.24,0,.37a10.18,10.18,0,0,1-.16,1.85,10.67,10.67,0,0,1-.71,2.35,11,11,0,0,1-1.5,2.54,10.37,10.37,0,0,1-1.1,1.21,10,10,0,0,1-1.31,1.1,11.76,11.76,0,0,1-1.53.93,11,11,0,0,1-1.7.7,11.26,11.26,0,0,1-1.82.45,14.75,14.75,0,0,1-1.88.16h-.67l-.25,0-.5,0-.47-.06a11.55,11.55,0,0,1-1.83-.42,11.11,11.11,0,0,1-1.71-.69,11.61,11.61,0,0,1-2.89-2A14,14,0,0,1,95.93,119a12,12,0,0,1-1.55-2.55,11.18,11.18,0,0,1-.74-2.37,9.33,9.33,0,0,1-.19-1.89v-.36a3.25,3.25,0,0,1,0-.33c0-.2,0-.37,0-.51s.06-.41.06-.41a.68.68,0,0,1,1.33,0v0s0,.12.08.36.05.27.09.44.09.36.16.57a10.09,10.09,0,0,0,.53,1.49,11.87,11.87,0,0,0,1,1.76A11.3,11.3,0,0,0,98.2,117a10.62,10.62,0,0,0,.94.82l.52.38.27.17a2.61,2.61,0,0,0,.28.17,9.38,9.38,0,0,0,1.18.61l.3.12.32.12.32.11.33.1a9.81,9.81,0,0,0,1.33.28l.34,0,.32,0,.16,0h.56a10.42,10.42,0,0,0,2.73-.34c.11,0,.21-.06.32-.09l.33-.11.32-.11.31-.12a11.14,11.14,0,0,0,1.2-.59,2.61,2.61,0,0,0,.28-.17l.28-.17.53-.38a11,11,0,0,0,1-.81,11.29,11.29,0,0,0,1.52-1.79,11.06,11.06,0,0,0,1-1.77,11.49,11.49,0,0,0,.57-1.52l.09-.31a2.13,2.13,0,0,1,.07-.27l.06-.23c0-.08,0-.15,0-.21,0-.26.08-.4.08-.4a.45.45,0,0,1,.53-.34A.45.45,0,0,1,116.94,110.57Z" transform="translate(-0.88 -0.74)"/><path class="cls-1" d="M124.28,61.16c0,3.18-1.34,5.76-3,5.76s-3-2.58-3-5.76,1.31-4.74,3-4.74S124.28,58,124.28,61.16Z" transform="translate(-0.88 -0.74)"/><path class="cls-1" d="M92.26,61.16c0,3.18-1.34,5.76-3,5.76s-3-2.58-3-5.76,1.32-4.74,3-4.74S92.26,58,92.26,61.16Z" transform="translate(-0.88 -0.74)"/><path class="cls-7" d="M81.62,56.63a2.28,2.28,0,0,1-.63-.09,2.1,2.1,0,0,1-1.38-2.64,9.46,9.46,0,0,1,6.87-6.72,12,12,0,0,1,4.73-.27,2.11,2.11,0,0,1-.71,4.15c-.56-.09-5.39-.72-6.88,4.09A2.09,2.09,0,0,1,81.62,56.63Z" transform="translate(-0.88 -0.74)"/><path class="cls-1" d="M81.62,57.6h0a3.09,3.09,0,0,1-.91-.14A3,3,0,0,1,78.9,56a3.08,3.08,0,0,1-.22-2.34,10.39,10.39,0,0,1,7.56-7.37,12.87,12.87,0,0,1,3.3-.42,10,10,0,0,1,1.83.14,3.06,3.06,0,0,1-.52,6.08,2.92,2.92,0,0,1-.51,0,6.72,6.72,0,0,0-.89-.06,4.72,4.72,0,0,0-4.9,3.48,3.05,3.05,0,0,1-2.93,2.17Zm7.92-9.84h0a11.27,11.27,0,0,0-2.81.35,8.54,8.54,0,0,0-6.2,6.08,1.15,1.15,0,0,0,.08.87,1.13,1.13,0,0,0,.67.56,1.27,1.27,0,0,0,.34.05,1.13,1.13,0,0,0,1.08-.81A6.71,6.71,0,0,1,89.45,50a7.24,7.24,0,0,1,1.2.09l.2,0A1.14,1.14,0,0,0,91,47.86,10.05,10.05,0,0,0,89.54,47.76Z" transform="translate(-0.88 -0.74)"/><path class="cls-7" d="M127.9,56.05a2.11,2.11,0,0,1-2-1.48c-1.53-5-6.64-4.13-6.86-4.1a2.1,2.1,0,1,1-.72-4.14,12,12,0,0,1,4.72.26,9.49,9.49,0,0,1,6.88,6.73A2.1,2.1,0,0,1,128.52,56,1.87,1.87,0,0,1,127.9,56.05Z" transform="translate(-0.88 -0.74)"/><path class="cls-1" d="M127.9,57A3.06,3.06,0,0,1,125,54.85a4.74,4.74,0,0,0-4.91-3.49,5.79,5.79,0,0,0-.86.06,3.27,3.27,0,0,1-.53,0,3.07,3.07,0,0,1-.53-6.09,11.92,11.92,0,0,1,1.84-.13,12.92,12.92,0,0,1,3.3.41A10.42,10.42,0,0,1,130.83,53a3.05,3.05,0,0,1-2,3.83,3.09,3.09,0,0,1-.91.14Zm-7.84-7.57h0a6.71,6.71,0,0,1,6.75,4.84,1.14,1.14,0,0,0,1.09.8,1,1,0,0,0,.34,0,1.14,1.14,0,0,0,.75-1.42,8.54,8.54,0,0,0-6.2-6.08,10.88,10.88,0,0,0-2.81-.36,9.63,9.63,0,0,0-1.51.11,1.1,1.1,0,0,0-.73.47,1.14,1.14,0,0,0,.93,1.79.71.71,0,0,0,.2,0A8.59,8.59,0,0,1,120.06,49.44Z" transform="translate(-0.88 -0.74)"/><path class="cls-1" d="M96.44,99.61s.24.29.68.72a11.74,11.74,0,0,0,1.93,1.54,9.6,9.6,0,0,0,1.39.75,10.88,10.88,0,0,0,1.61.56,11.67,11.67,0,0,0,1.8.32c.31,0,.62,0,.94.06h1a4.1,4.1,0,0,0,.51,0l.48,0c.32,0,.65,0,1-.09a13.18,13.18,0,0,0,1.83-.3,10.74,10.74,0,0,0,1.63-.53,7.38,7.38,0,0,0,1.34-.73,6.39,6.39,0,0,0,1.69-1.69,5,5,0,0,0,.48-.85,1.87,1.87,0,0,1,0,.27,4.79,4.79,0,0,1,0,.76,5.76,5.76,0,0,1-.34,1.16,5.63,5.63,0,0,1-.83,1.37,6.83,6.83,0,0,1-1.41,1.3,8.55,8.55,0,0,1-1.87,1,11.13,11.13,0,0,1-2.16.6c-.37.07-.74.11-1.12.16s-.79.06-1.13.06h-1.14c-.39,0-.77-.07-1.15-.13a10.26,10.26,0,0,1-2.19-.62,9.66,9.66,0,0,1-1.85-1,8.13,8.13,0,0,1-1.38-1.27,8.24,8.24,0,0,1-.91-1.27,7.52,7.52,0,0,1-.5-1.07A4.15,4.15,0,0,1,96.44,99.61Z" transform="translate(-0.88 -0.74)"/><path class="cls-7" d="M112.44,66.15c-5.88-.86-6.72,2-6.72,2.06s-.84-2.92-6.72-2.06c-7.76,1.13-7.34,8.33-23.69,6.95,0,0,27,8.88,30.41.57,3.36,8.31,30.41-.57,30.41-.57C119.78,74.48,120.2,67.28,112.44,66.15Z" transform="translate(-0.88 -0.74)"/><path class="cls-1" d="M114.51,78.54c-4.16,0-7.1-.85-8.79-2.54-1.69,1.69-4.63,2.54-8.79,2.54-9.17,0-21.51-4-22-4.19a1.31,1.31,0,0,1,.52-2.56c1.34.11,2.61.17,3.79.17h0c7,0,9.84-2,12.56-3.91a15.29,15.29,0,0,1,7-3.21,16.07,16.07,0,0,1,2.22-.17,7.26,7.26,0,0,1,4.68,1.4,7.1,7.1,0,0,1,4.7-1.4,16.19,16.19,0,0,1,2.22.17,15.29,15.29,0,0,1,7,3.21C122.39,70,125.21,72,132.23,72c1.17,0,2.45-.06,3.79-.17a1.31,1.31,0,0,1,.52,2.56c-.52.17-12.86,4.19-22,4.19Zm-8.79-6.18h0a1.3,1.3,0,0,1,1.22.82c.91,2.25,4.62,2.73,7.57,2.73a60.61,60.61,0,0,0,12.59-1.72,20,20,0,0,1-8.95-4,12.71,12.71,0,0,0-5.9-2.75,12.4,12.4,0,0,0-1.84-.15c-2.83,0-3.4,1.21-3.44,1.31a1.32,1.32,0,0,1-1.25.91h0a1.31,1.31,0,0,1-1.25-.91c0-.11-.61-1.31-3.44-1.31a12.4,12.4,0,0,0-1.84.15,12.71,12.71,0,0,0-5.9,2.75,20,20,0,0,1-9,4,60.61,60.61,0,0,0,12.59,1.72c2.95,0,6.66-.48,7.57-2.73A1.3,1.3,0,0,1,105.72,72.36Z" transform="translate(-0.88 -0.74)"/><path class="cls-1" d="M107.8,64.45a.7.7,0,0,1-.66-.47,1.55,1.55,0,0,0-1.42-.93A1.9,1.9,0,0,0,104,64a.7.7,0,0,1-1.24-.67,3.35,3.35,0,0,1,3-1.68,2.92,2.92,0,0,1,2.66,1.88.7.7,0,0,1-.44.89A.83.83,0,0,1,107.8,64.45Z" transform="translate(-0.88 -0.74)"/><path class="cls-1" d="M76.91,51.66,69.25,17.92V17.7A10.92,10.92,0,0,1,77,7.94c6-1.92,9.15-.38,11.8,1.71a18.56,18.56,0,0,1,2.83-3.48A19.64,19.64,0,0,1,105.68.74h.07c7,0,11.27,3,13.61,5.51a17,17,0,0,1,2.4,3.31c2.62-2.05,5.8-3.51,11.67-1.62a10.92,10.92,0,0,1,7.71,9.76v.2l0,.19-6.74,33.38-3.43-.7,6.69-33.14a7.43,7.43,0,0,0-5.26-6.35c-5.35-1.72-7.22-.08-10.05,2.4l-2.07,1.81-.79-2.59c-.11-.35-2.85-8.64-13.7-8.66h-.07c-11.16,0-14.75,8.7-14.78,8.79L90,15.34l-1.89-1.66c-2.83-2.48-4.71-4.12-10-2.4a7.42,7.42,0,0,0-5.26,6.33l7.55,33.28Z" transform="translate(-0.88 -0.74)"/><path class="cls-1" d="M77.27,46l-1.33-1.39a43.06,43.06,0,0,1,8.25-5.81,44.65,44.65,0,0,1,21.35-5.78,42.35,42.35,0,0,1,21.27,5.79,35.87,35.87,0,0,1,7.69,5.84L133.08,46a34.44,34.44,0,0,0-7.31-5.52A40.38,40.38,0,0,0,105.54,35C89,35,77.39,45.92,77.27,46Z" transform="translate(-0.88 -0.74)"/><path class="cls-1" d="M103,34.72s-.24-5-.21-10.12c.06-10.63,1.15-11.77,1.56-12.2a1.23,1.23,0,0,1,.91-.42,1.47,1.47,0,0,1,1.07.48c.42.44,1.71,1.76,2.13,12.07.21,5,.11,9.73.11,9.78l-1.41,0c0-.05.11-5.17-.13-10.35-.4-8.77-1.44-10.26-1.72-10.51-.25.35-1.06,2.15-1.12,11,0,5.18.21,10.23.21,10.28Z" transform="translate(-0.88 -0.74)"/><path class="cls-1" d="M84.16,39c0-.05-1.28-4.27-2.35-8.77-2-8.35-1.63-10.41-1.19-11.23a1.33,1.33,0,0,1,.79-.68,1.46,1.46,0,0,1,1.22.18c.51.29,2,1.2,4.63,10.1C88.51,32.85,89.41,37,89.42,37l-1.37.3s-1-4.62-2.36-9.12c-2.32-7.77-3.62-8.51-3.84-8.58-.16.27-.65,1.84,1.24,9.89,1.08,4.59,2.4,9,2.41,9Z" transform="translate(-0.88 -0.74)"/><path class="cls-1" d="M125.94,39l-1.35-.41s1.34-4.44,2.42-9c1.89-8,1.39-9.62,1.24-9.89-.23.07-1.52.81-3.85,8.58-1.35,4.5-2.35,9.07-2.36,9.12l-1.37-.3s.92-4.18,2.17-8.47c2.58-8.9,4.12-9.81,4.62-10.1a1.47,1.47,0,0,1,1.22-.18,1.31,1.31,0,0,1,.79.68c.45.82.81,2.88-1.18,11.23C127.22,34.69,126,38.91,125.94,39Z" transform="translate(-0.88 -0.74)"/><path class="cls-1" d="M72.24,60.62s-7.68,10.32,0,20.42l-5.55,3.17a10.11,10.11,0,0,1-1.87-8.45C66,70.8,69.78,61.91,72.24,60.62Z" transform="translate(-0.88 -0.74)"/><path class="cls-1" d="M138.85,61.12s7.68,10.32,0,20.41l5.55,3.18a10.11,10.11,0,0,0,1.87-8.45C145.12,71.3,141.3,62.41,138.85,61.12Z" transform="translate(-0.88 -0.74)"/><path class="cls-1" d="M63,154.92a13.25,13.25,0,0,1-2.83-.28c-3.45-.74-5.78-3.12-6.73-6.86a15.69,15.69,0,0,1-.39-5.18l3,.35c0,.31-.79,7.57,4.79,8.78,4,.87,11.06-1,14-4.71a5.08,5.08,0,0,0,.67-5.74c-1.17-2.5-2.3-2.26-2.31-2.25L72,136.3c1.28-.56,4.22-.5,6.2,3.72a8.1,8.1,0,0,1-1,8.85C74.07,152.8,67.9,154.92,63,154.92Z" transform="translate(-0.88 -0.74)"/><path class="cls-1" d="M67.58,162.51l-.65,0c-6-.37-7.78-6.43-7.89-9.59l3-.11c0,.26.31,6.43,5.09,6.72,3.77.23,10-2.4,11.81-5.81a3.62,3.62,0,0,0-.36-4.19,2.54,2.54,0,0,0-1.24-.83l.6-2.92a5.39,5.39,0,0,1,3,2,6.61,6.61,0,0,1,.58,7.39C79.16,159.5,72.41,162.51,67.58,162.51Z" transform="translate(-0.88 -0.74)"/><path class="cls-1" d="M80.32,142.59a4.45,4.45,0,0,1-.65,0c-3.91-.51-6.83-5.32-7.15-5.87l2.57-1.5c.63,1.06,2.88,4.15,5,4.41a2.4,2.4,0,0,0,2.13-.89c1.88-1.88.88-5.24.36-6.59-1.51-4-5-7.68-7.33-7.81a3.45,3.45,0,0,0-2.62.77,4.87,4.87,0,0,0-1.3,2.89l-3-.16a7.67,7.67,0,0,1,2.29-5,6.32,6.32,0,0,1,4.77-1.52c4,.21,8.19,5.11,9.95,9.71,1.54,4,1.16,7.57-1,9.76A5.52,5.52,0,0,1,80.32,142.59Z" transform="translate(-0.88 -0.74)"/><path class="cls-1" d="M67,127.82h0s0,0,0,0l0,.05v0a.64.64,0,0,0-.15-.15,2.21,2.21,0,0,0-.51-.28,4.12,4.12,0,0,0-1-.21,10.27,10.27,0,0,0-3.28.32c-.66.15-1.36.35-2.11.6l-.27.1-.15,0-.07,0-.13,0h0l-.53.17c-.37.13-.75.29-1.13.45a15.29,15.29,0,0,0-2.24,1.22,9.35,9.35,0,0,0-2,1.7,5.31,5.31,0,0,0-1.15,2.17,5.17,5.17,0,0,0,.09,2.55,7.82,7.82,0,0,0,1.22,2.59A5.67,5.67,0,0,0,55.83,141a7.3,7.3,0,0,0,2.86.7h.77c.25,0,.52,0,.74-.07l.37-.07.41-.09c.28-.06.57-.12.85-.2A31.4,31.4,0,0,0,68.26,139a13.55,13.55,0,0,0,2.67-1.71,5.41,5.41,0,0,0,1.65-2.13,3.39,3.39,0,0,0,.24-1.16c0-.1,0-.2,0-.3s0-.2,0-.3,0-.2,0-.3l0-.15,0-.17-.06-.2,0-.15a1.86,1.86,0,0,0-.1-.31c-.08-.22-.17-.42-.26-.61a4.29,4.29,0,0,0-.64-1,3.27,3.27,0,0,0-1.79-1.06,6.64,6.64,0,0,0-2.32-.06,16.06,16.06,0,0,0-2.33.5l-1.11.34-1,.35c-1.35.49-2.54.95-3.52,1.33l-1.32.51-1,.36-.83.29s.23-.21.67-.58l.81-.67,1.14-.86a31,31,0,0,1,3.25-2.1,22.37,22.37,0,0,1,2.19-1.08,15,15,0,0,1,2.65-.86,10.71,10.71,0,0,1,1.55-.22,7.33,7.33,0,0,1,1.73.1,5.28,5.28,0,0,1,.91.23,5.35,5.35,0,0,1,.89.39,5.81,5.81,0,0,1,1.56,1.24,7.11,7.11,0,0,1,1.07,1.62,9.28,9.28,0,0,1,.37.86l.15.45.08.24,0,.2.06.22.06.25c0,.16.07.33.1.5s0,.35,0,.52,0,.35,0,.53a6.39,6.39,0,0,1-.41,2.12,7.19,7.19,0,0,1-1,1.84,9.26,9.26,0,0,1-1.39,1.47,16.32,16.32,0,0,1-3.21,2.14,28.47,28.47,0,0,1-3.47,1.48,37.08,37.08,0,0,1-3.59,1.08l-.91.21-.47.1a4.19,4.19,0,0,1-.51.1,10.21,10.21,0,0,1-1.06.1c-.35,0-.69,0-1,0a10.48,10.48,0,0,1-4-1A8.71,8.71,0,0,1,51.29,141a10,10,0,0,1-1-1.75c-.14-.3-.26-.61-.37-.91a4.5,4.5,0,0,1-.16-.48l-.07-.2,0-.12,0-.12a8.08,8.08,0,0,1-.11-4A8.21,8.21,0,0,1,51.25,130a12.22,12.22,0,0,1,2.58-2.25,17.87,17.87,0,0,1,2.69-1.47c.45-.19.89-.37,1.34-.53l.68-.22.54-.19c.82-.27,1.62-.5,2.39-.68a13.36,13.36,0,0,1,4.25-.36,6.6,6.6,0,0,1,1.75.4,4.71,4.71,0,0,1,1.3.73,3.85,3.85,0,0,1,.73.78,3,3,0,0,1,.18.29l.07.13v0Z" transform="translate(-0.88 -0.74)"/><path class="cls-1" d="M81.94,151.7l-2-2.19h0c.12-.12,2.93-2.94,1.26-8.81L84,139.9C86.22,147.61,82.12,151.54,81.94,151.7Z" transform="translate(-0.88 -0.74)"/><path class="cls-1" d="M148.26,154.72c-4.86,0-11-2.12-14.16-6.05a8.13,8.13,0,0,1-1-8.86c2-4.22,4.92-4.27,6.2-3.72l-1.19,2.74.06,0c-.43-.13-1.41.19-2.37,2.23a5,5,0,0,0,.68,5.73c2.47,3.11,7.78,4.93,11.82,4.93a10.81,10.81,0,0,0,2.2-.21c5.58-1.21,4.83-8.48,4.79-8.78l3-.35a15.69,15.69,0,0,1-.39,5.18c-.95,3.74-3.28,6.11-6.73,6.86A13.25,13.25,0,0,1,148.26,154.72Z" transform="translate(-0.88 -0.74)"/><path class="cls-1" d="M143.72,162.31c-4.82,0-11.58-3-14-7.38a6.61,6.61,0,0,1,.58-7.39,5.39,5.39,0,0,1,3-2l.6,2.92h0a2.38,2.38,0,0,0-1.25.82,3.62,3.62,0,0,0-.37,4.2c1.85,3.41,8.05,6,11.81,5.81a4.79,4.79,0,0,0,4.3-3.31,11.15,11.15,0,0,0,.79-3.41l3,.11c-.11,3.15-1.9,9.22-7.89,9.58C144.16,162.3,143.94,162.31,143.72,162.31Z" transform="translate(-0.88 -0.74)"/><path class="cls-1" d="M131,142.39a5.52,5.52,0,0,1-4-1.79c-2.19-2.19-2.57-5.75-1-9.76,1.76-4.6,6-9.5,10-9.72a6.37,6.37,0,0,1,4.77,1.53A7.67,7.67,0,0,1,143,127.6l-3,.17a5.24,5.24,0,0,0-.65-2.08,3.23,3.23,0,0,0-3.27-1.59c-2.32.13-5.82,3.85-7.33,7.81-.52,1.35-1.52,4.7.36,6.58a2.39,2.39,0,0,0,2.13.9c2.1-.27,4.34-3.35,5-4.42l2.57,1.51c-.32.54-3.24,5.36-7.15,5.87A6.48,6.48,0,0,1,131,142.39Z" transform="translate(-0.88 -0.74)"/><path class="cls-1" d="M141.54,126.45v0l.07-.13a2.12,2.12,0,0,1,.18-.29,3.61,3.61,0,0,1,.73-.78,4.71,4.71,0,0,1,1.3-.73,6.6,6.6,0,0,1,1.75-.4,13.36,13.36,0,0,1,4.25.36c.77.18,1.57.41,2.39.68l.54.19.68.22c.45.16.89.34,1.34.53a18.46,18.46,0,0,1,2.7,1.47,12.43,12.43,0,0,1,2.57,2.25,7.89,7.89,0,0,1,1.66,7.45l0,.12,0,.12-.06.2c-.05.15-.11.33-.17.48-.11.3-.23.61-.37.91a10,10,0,0,1-1,1.75,8.71,8.71,0,0,1-3.23,2.69,10.48,10.48,0,0,1-4,1h-1c-.34,0-.68-.05-1.06-.1-.22,0-.35-.07-.51-.1l-.47-.1-.91-.21c-1.21-.3-2.41-.66-3.59-1.08a27.05,27.05,0,0,1-3.47-1.49,15.84,15.84,0,0,1-3.21-2.13,9.7,9.7,0,0,1-1.39-1.47,7.36,7.36,0,0,1-1-1.84,6.44,6.44,0,0,1-.41-2.12c0-.18,0-.35,0-.53s0-.35.06-.52a4.54,4.54,0,0,1,.09-.51l.06-.24.06-.23.05-.19.08-.24.15-.45c.11-.29.24-.58.37-.86a7.77,7.77,0,0,1,1.07-1.63,6.23,6.23,0,0,1,1.56-1.24,5.1,5.1,0,0,1,.9-.39,7.43,7.43,0,0,1,.9-.23,6.82,6.82,0,0,1,1.73-.09,9.49,9.49,0,0,1,1.55.22,15.38,15.38,0,0,1,2.66.86c.79.34,1.52.71,2.18,1.07a31.43,31.43,0,0,1,3.25,2.11c.43.31.81.61,1.14.87l.82.66c.44.37.66.57.66.57l-.83-.28-1-.37-1.32-.5c-1-.38-2.17-.85-3.52-1.33l-1-.35-1.1-.34a15.21,15.21,0,0,0-2.34-.5,6.9,6.9,0,0,0-2.32.05,3.35,3.35,0,0,0-1.79,1.07,4.29,4.29,0,0,0-.64,1c-.09.19-.18.39-.26.61a1.86,1.86,0,0,0-.1.31l0,.15-.06.2,0,.17,0,.15c0,.1,0,.2,0,.3s0,.2,0,.3,0,.2,0,.3a3.29,3.29,0,0,0,.24,1.15,5.37,5.37,0,0,0,1.65,2.14,14,14,0,0,0,2.67,1.71,31.4,31.4,0,0,0,6.43,2.28l.85.2.42.09.37.07c.21,0,.48.06.73.07a6.62,6.62,0,0,0,.77,0,7.12,7.12,0,0,0,2.86-.69A5.67,5.67,0,0,0,157.6,139a7.87,7.87,0,0,0,1.22-2.6,5.13,5.13,0,0,0,.09-2.54,5.29,5.29,0,0,0-1.14-2.17,9.66,9.66,0,0,0-2-1.7,15.29,15.29,0,0,0-2.24-1.22c-.38-.17-.76-.32-1.13-.45l-.53-.17h0l-.13,0-.07,0-.15,0-.27-.1a21.57,21.57,0,0,0-2.11-.6,10.27,10.27,0,0,0-3.28-.32,4.12,4.12,0,0,0-1,.21,2.26,2.26,0,0,0-.51.27,1.82,1.82,0,0,0-.15.15h0a.14.14,0,0,0,0-.06s0,0,0,0h0Z" transform="translate(-0.88 -0.74)"/><path class="cls-1" d="M129.36,151.5c-.18-.16-4.28-4.09-2.1-11.8l2.89.81c-1.69,6,1.22,8.77,1.25,8.8Z" transform="translate(-0.88 -0.74)"/><path class="cls-1" d="M73.14,124.19a5.66,5.66,0,0,1,2.53-6.66,5,5,0,0,1,.8-3.28,6.33,6.33,0,0,1,4.24-2.5l.43,3.48-.22-1.74.23,1.74a2.81,2.81,0,0,0-1.77,1,2.24,2.24,0,0,0-.07,1.85l.46,1.66-1.61.49h0A3.64,3.64,0,0,0,77,121a2.07,2.07,0,0,0-.44,2.24Z" transform="translate(-0.88 -0.74)"/><path class="cls-1" d="M99.12,127.13s.12.34.35.89c.11.28.26.61.44,1a9.5,9.5,0,0,0,.66,1.11,6.6,6.6,0,0,0,.9,1.09,5.14,5.14,0,0,0,1.16.86,5.21,5.21,0,0,0,1.4.53,8.46,8.46,0,0,0,1.64.2h.87l.34,0c.12,0,.25,0,.37-.06a4.67,4.67,0,0,0,1.33-.48,4.35,4.35,0,0,0,1.08-.89,7.19,7.19,0,0,0,.85-1.14,11.63,11.63,0,0,0,.6-1.15c.17-.36.3-.7.41-1,.22-.56.33-.9.33-.9a4.65,4.65,0,0,1,.27,1,6.75,6.75,0,0,1,.12,1.13,6.93,6.93,0,0,1-.11,1.52,6.25,6.25,0,0,1-.59,1.79,5.54,5.54,0,0,1-1.38,1.78,5.87,5.87,0,0,1-2.19,1.17c-.2.06-.4.1-.6.14s-.44.07-.66.1h-1.15a8.57,8.57,0,0,1-2.34-.4,6.75,6.75,0,0,1-2.11-1.15,6.15,6.15,0,0,1-1.44-1.69,6.61,6.61,0,0,1-.69-1.76,6.59,6.59,0,0,1-.1-2.66,5.54,5.54,0,0,1,.15-.71A1.68,1.68,0,0,1,99.12,127.13Z" transform="translate(-0.88 -0.74)"/><path class="cls-1" d="M106.29,135.55l-.07.36c0,.12,0,.23-.09.37s-.13.54-.2.79c-.14.51-.3,1-.48,1.52s-.38,1-.61,1.48-.47,1-.73,1.43a18.37,18.37,0,0,1-4.06,5,21.12,21.12,0,0,1-5.39,3.35,23.74,23.74,0,0,1-3,1.07c-.51.14-1,.27-1.54.38-.25.05-.51.11-.78.15l-.4.07-.21,0-.24,0-1.65.19-.25-1.65-.09-.59-.07-.58c0-.38-.1-.76-.14-1.15-.08-.76-.14-1.53-.19-2.3-.09-1.53-.12-3.08-.06-4.64a26.93,26.93,0,0,1,.59-4.75,15,15,0,0,1,.74-2.4,10.29,10.29,0,0,1,1.32-2.36l.8,2.73-.43-.18-.39-.17-.77-.36c-.51-.25-1-.51-1.51-.78a30.56,30.56,0,0,1-2.88-1.78,25.91,25.91,0,0,1-2.68-2.14l-.62-.61-.59-.64c-.2-.22-.39-.44-.57-.68s-.36-.47-.53-.7l2.24-1.66c.15.18.3.37.46.55s.33.35.5.53.34.34.53.5l.55.49a21.49,21.49,0,0,0,2.44,1.74A28.5,28.5,0,0,0,88,129.58c.46.22.92.43,1.39.62l.7.28.35.13.32.11,2.16.69-1.36,2a6.39,6.39,0,0,0-.85,1.53,11.86,11.86,0,0,0-.57,1.86,23.8,23.8,0,0,0-.51,4.12,40.86,40.86,0,0,0,.06,4.28c0,.72.1,1.43.18,2.15l.12,1.07L90,149l.08.51L88.2,148h.12l.15,0,.32,0,.64-.13c.44-.09.87-.2,1.3-.32a20,20,0,0,0,2.53-.91,17.49,17.49,0,0,0,4.5-2.79,15,15,0,0,0,3.3-4c.21-.38.41-.77.59-1.17a12,12,0,0,0,.5-1.22c.15-.41.28-.83.4-1.26.07-.22.11-.41.16-.62s.05-.23.08-.35l.08-.35Z" transform="translate(-0.88 -0.74)"/><path class="cls-1" d="M90.83,141.84s3.78-3.09,2-10.44l-2,.49A18.07,18.07,0,0,1,90.83,141.84Z" transform="translate(-0.88 -0.74)"/><path class="cls-1" d="M90.88,125.53s2.63,2.43,5.55,1.6,2.1-5.44,2.1-5.44l-1.93-.36S99.06,127,90.88,125.53Z" transform="translate(-0.88 -0.74)"/><path class="cls-1" d="M137.16,124.12l-3.36-1a2.06,2.06,0,0,0-.5-2.29,3.54,3.54,0,0,0-1.15-.72l-1.61-.52L131,118a2.27,2.27,0,0,0-.07-1.85,2.83,2.83,0,0,0-1.78-1l.45-3.48a6.3,6.3,0,0,1,4.24,2.5,5.1,5.1,0,0,1,.8,3.27A5.67,5.67,0,0,1,137.16,124.12Z" transform="translate(-0.88 -0.74)"/><path class="cls-1" d="M108.29,134.76l.18.67c.07.2.12.39.19.6.13.41.27.82.43,1.22s.33.79.51,1.18.37.77.58,1.14a16.5,16.5,0,0,0,7.22,6.91,18.33,18.33,0,0,0,2.35,1c.4.13.81.24,1.22.34.2,0,.4.09.6.12l.29.05.14,0,.11,0-1.81,1.13.08-.22.08-.26.16-.51c.11-.35.21-.71.3-1.06.18-.71.34-1.42.47-2.14a22.29,22.29,0,0,0,.4-4.28,12,12,0,0,0-.63-4,6.63,6.63,0,0,0-2.06-3l-2.79-2.2,3.41-.86.13,0,.15,0,.31-.09.63-.2c.42-.14.84-.28,1.26-.44a24,24,0,0,0,2.44-1.06,21.38,21.38,0,0,0,2.28-1.31,6.3,6.3,0,0,0,.53-.37c.18-.12.35-.25.52-.38l.49-.41.48-.42,2,1.95c-.18.18-.36.38-.55.55l-.56.53-.58.5-.6.47a24.2,24.2,0,0,1-2.51,1.66c-.86.5-1.75.95-2.65,1.36-.45.21-.91.4-1.37.58l-.71.27-.36.13-.18.06-.2.07.62-3.06a11.71,11.71,0,0,1,1,1,10.55,10.55,0,0,1,.89,1.11,11.12,11.12,0,0,1,.71,1.2,12.56,12.56,0,0,1,.54,1.26,14.1,14.1,0,0,1,.64,2.58,18.51,18.51,0,0,1,.2,2.56,26.94,26.94,0,0,1-.46,4.94c-.15.81-.32,1.6-.53,2.39-.1.4-.21.79-.33,1.18,0,.2-.12.39-.18.59l-.1.3-.11.32-.45,1.29-1.36-.15-.13,0h-.11l-.21,0-.4-.07-.76-.16c-.51-.12-1-.25-1.49-.41a20.45,20.45,0,0,1-2.83-1.15,19.86,19.86,0,0,1-5-3.5,20.3,20.3,0,0,1-3.71-4.85c-.25-.44-.48-.9-.7-1.35s-.41-.92-.59-1.39-.35-.95-.51-1.42c-.08-.24-.15-.5-.22-.74l-.19-.68Z" transform="translate(-0.88 -0.74)"/><path class="cls-1" d="M118.33,141.91s-3.78-3.1-2-10.45l2,.49A18.1,18.1,0,0,0,118.33,141.91Z" transform="translate(-0.88 -0.74)"/><path class="cls-1" d="M119.25,125.46s-2.63,2.44-5.55,1.61-2.1-5.45-2.1-5.45l1.93-.35S111.07,126.91,119.25,125.46Z" transform="translate(-0.88 -0.74)"/><path class="cls-1" d="M125.92,76.41a1.16,1.16,0,0,0-.88-.3H86.34a1.16,1.16,0,0,0-1.23,1.15.78.78,0,0,0,0,.22,1.08,1.08,0,0,0,0,.36,27.84,27.84,0,0,0,3.28,9.78,10.28,10.28,0,0,0,2.16,3.09h0l0,.13c.12.14.23.31.35.45l.1.13a18,18,0,0,0,14.47,6.45c5.61,0,10.19-1.67,13.66-5a19.65,19.65,0,0,0,4.22-5.51,26,26,0,0,0,2.85-10.13,1.12,1.12,0,0,0-.34-.86ZM98.33,89.26h0a8.93,8.93,0,0,1,6.77,2.89l.59.68.59-.68a8.93,8.93,0,0,1,6.77-2.89,9.49,9.49,0,0,1,5,1.39c-3.1,3-7.27,4.6-12.46,4.6a16.17,16.17,0,0,1-12-4.73,9.4,9.4,0,0,1,4.78-1.26Zm25.35-10.61h0a18.22,18.22,0,0,1-.39,2,259.88,259.88,0,0,1-35.12.07c-.23-.89-.39-2.11-.48-2.11Z" transform="translate(-0.88 -0.74)"/><path class="cls-6" d="M158.65,140.81l.4-1.08,0-.07C158.93,140,158.79,140.42,158.65,140.81Z" transform="translate(-0.88 -0.74)"/><path class="cls-1" d="M65.34,128.2,61.71,123a3,3,0,0,0-2.49-1.28l-4.2-6,4.09-10.52a1.57,1.57,0,0,0-.18-1.48L47.47,87.27a1.57,1.57,0,0,0-2.19-.39L29.08,98.13a1.58,1.58,0,0,0-.39,2.2l11.53,16.6a1.59,1.59,0,0,0,1.31.68l10.75-.07,4.2,6a3,3,0,0,0,.33,2.78L60,131l.26-.05.52-.11c.21-.05.42-.08.63-.12l.22.31a13.47,13.47,0,0,1,2.12-1.19l.09-.15a2.63,2.63,0,0,1,.49-.61l-.1-.13c.36-.25.73-.48,1.11-.71ZM46.82,95h0a1.23,1.23,0,0,1,1.6.55l5.1,7.34a1.23,1.23,0,0,1-.05,1.69,1.24,1.24,0,0,1-1.61-.54l-5.1-7.35A1.22,1.22,0,0,1,46.82,95Zm-4.08,17h0a1.22,1.22,0,0,1-1.6-.54L36,104.15A1.05,1.05,0,1,1,37.69,103l5.1,7.34a1.22,1.22,0,0,1,0,1.69Zm3.82-2.65h0a1.23,1.23,0,0,1-1.61-.54l-5.1-7.34a1.06,1.06,0,1,1,1.66-1.16l5.1,7.35a1.23,1.23,0,0,1,0,1.69Zm3.52-2.45h0a1.23,1.23,0,0,1-1.6-.54l-5.1-7.34A1.05,1.05,0,1,1,45,97.9l5.11,7.34A1.23,1.23,0,0,1,50.08,106.93Z" transform="translate(-0.88 -0.74)"/><path class="cls-1" d="M177,91.85a12.92,12.92,0,0,0-3.1-4.51h0l-.06,0,0,0h0l-.06,0,0,0h0l0,0,0,0h0a12.85,12.85,0,0,0-5.42-.68c-2.81.24-6.8,1.56-9.86,6.45-6.3,10.08-4.41,21.52-3.9,24l-3.52,5.79a2.43,2.43,0,0,0-2.23,1.15L145.53,129c.35.1.7.22,1,.35a3.2,3.2,0,0,1,.87,0,19,19,0,0,1,3.07.72l2.29-3.75a2.43,2.43,0,0,0,0-2.51l3.52-5.79c2.41-.67,13.44-4.25,19.49-14.49,2.93-5,2.27-9.11,1.2-11.71Zm-6.48,8.3h0a57.47,57.47,0,0,1-9.82,10.67l9.48-15.57,2.86-4.71c.57,1.65.75,4.79-2.52,9.61ZM156,111.58h0c-.2-4.55.34-11.36,4.17-17.48A10.87,10.87,0,0,1,166.72,89a18.39,18.39,0,0,0-5,6.12,62.73,62.73,0,0,0-5.7,16.49Zm7.67-15.43h0c2.77-5.11,5.7-6.52,7.49-6.85l-12.46,20.48a57.19,57.19,0,0,1,5-13.63Zm10.18,6.28h0c-3.71,6.27-9.6,9.89-13.74,11.79a62.82,62.82,0,0,0,12.22-12.81,17.89,17.89,0,0,0,3.09-7.07A10.91,10.91,0,0,1,173.89,102.43Z" transform="translate(-0.88 -0.74)"/></svg>